<?xml version="1.0" encoding="UTF-8" standalone="no"?>
<!-- Created with Inkscape (http://www.inkscape.org/) -->

<svg
   xmlns:dc="http://purl.org/dc/elements/1.1/"
   xmlns:cc="http://creativecommons.org/ns#"
   xmlns:rdf="http://www.w3.org/1999/02/22-rdf-syntax-ns#"
   xmlns:svg="http://www.w3.org/2000/svg"
   xmlns="http://www.w3.org/2000/svg"
   xmlns:sodipodi="http://sodipodi.sourceforge.net/DTD/sodipodi-0.dtd"
   xmlns:inkscape="http://www.inkscape.org/namespaces/inkscape"
   width="772"
   height="120"
   viewBox="0 0 772.00001 120"
   id="svg3578"
   version="1.1"
   inkscape:version="0.91 r13725"
   sodipodi:docname="kopfbild.svg">
  <defs
     id="defs3580">
    <clipPath
       clipPathUnits="userSpaceOnUse"
       id="clipPath3484">
      <path
         d="M 0,0 248,0 248,172 0,172 0,0 Z"
         id="path3486"
         inkscape:connector-curvature="0" />
    </clipPath>
    <clipPath
       clipPathUnits="userSpaceOnUse"
       id="clipPath3494">
      <path
         d="M 0,0 612,0 612,792 0,792 0,0 Z"
         id="path3496"
         inkscape:connector-curvature="0" />
    </clipPath>
    <clipPath
       clipPathUnits="userSpaceOnUse"
       id="clipPath3508">
      <path
         d="M 0,0 595,0 595,842 0,842 0,0 Z"
         id="path3510"
         inkscape:connector-curvature="0" />
    </clipPath>
  </defs>
  <sodipodi:namedview
     id="base"
     pagecolor="#ffffff"
     bordercolor="#666666"
     borderopacity="1.0"
     inkscape:pageopacity="0.0"
     inkscape:pageshadow="2"
     inkscape:zoom="1.4"
     inkscape:cx="390.4725"
     inkscape:cy="120"
     inkscape:document-units="px"
     inkscape:current-layer="layer1"
     showgrid="false"
     units="px"
     inkscape:window-width="1680"
     inkscape:window-height="1005"
     inkscape:window-x="0"
     inkscape:window-y="45"
     inkscape:window-maximized="0" />
  <metadata
     id="metadata3583">
    <rdf:RDF>
      <cc:Work
         rdf:about="">
        <dc:format>image/svg+xml</dc:format>
        <dc:type
           rdf:resource="http://purl.org/dc/dcmitype/StillImage" />
        <dc:title></dc:title>
      </cc:Work>
    </rdf:RDF>
  </metadata>
  <g
     inkscape:label="Layer 1"
     inkscape:groupmode="layer"
     id="layer1"
     transform="translate(0,-932.36216)">
    <g
       id="g3478"
       transform="matrix(0.64399794,0,0,-0.64399794,608.01887,1047.4897)">
      <g
         id="g3480">
        <g
           id="g3482"
           clip-path="url(#clipPath3484)">
          <g
             id="g3488"
             transform="translate(-153,-492)">
            <g
               id="g3490">
              <g
                 id="g3492"
                 clip-path="url(#clipPath3494)">
                <g
                   id="g3498"
                   transform="translate(148.7123,487.198)">
                  <g
                     id="g3500">
                    <g
                       id="g3502"
                       transform="translate(5,5)">
                      <g
                         id="g3504">
                        <g
                           id="g3506"
                           clip-path="url(#clipPath3508)">
                          <g
                             id="g3512"
                             transform="scale(0.1,0.1)">
                            <path
                               d="m 82.457,419.168 c -6.5195,4.77 -14.9179,7.148 -25.1172,7.148 -4.1406,0 -8.2421,-0.429 -12.2226,-1.25 -3.9883,-0.82 -7.5391,-2.187 -10.668,-4.136 -3.082,-1.91 -5.582,-4.492 -7.4609,-7.774 -1.8321,-3.238 -2.7695,-7.269 -2.7695,-12.109 0,-4.527 1.3281,-8.238 4.0195,-11.059 2.6992,-2.851 6.289,-5.148 10.7812,-6.91 4.4571,-1.801 9.5274,-3.281 15.1993,-4.449 5.6601,-1.18 11.3984,-2.461 17.2578,-3.871 5.8632,-1.371 11.6406,-2.969 17.3125,-4.84 5.6171,-1.879 10.6992,-4.379 15.1879,-7.539 4.5,-3.211 8.089,-7.191 10.75,-12.031 2.691,-4.809 4.062,-10.899 4.062,-18.211 0,-7.848 -1.762,-14.571 -5.312,-20.149 -3.52,-5.59 -8.008,-10.16 -13.52,-13.679 -5.5508,-3.512 -11.7187,-6.09 -18.5508,-7.653 -6.7968,-1.558 -13.5976,-2.379 -20.3593,-2.379 -8.2774,0 -16.1289,1.051 -23.5078,3.121 -7.3829,2.071 -13.8711,5.2 -19.4493,9.411 -5.5898,4.179 -9.99996,9.57 -13.24996,16.14 C 1.63672,323.469 0,331.238 0,340.227 l 18.6289,0 c 0,-6.207 1.2109,-11.559 3.6406,-16.059 2.3789,-4.488 5.5782,-8.16 9.4883,-11.051 3.9414,-2.89 8.5117,-5.039 13.7891,-6.41 5.2304,-1.398 10.6211,-2.07 16.1328,-2.07 4.4101,0 8.8672,0.39 13.3594,1.211 4.4882,0.859 8.5078,2.269 12.1093,4.261 3.5508,1.989 6.4805,4.731 8.668,8.168 2.1914,3.43 3.3203,7.852 3.3203,13.243 0,5.109 -1.3672,9.218 -4.0195,12.418 -2.6992,3.16 -6.2891,5.742 -10.7774,7.769 -4.5,1.992 -9.5429,3.602 -15.2031,4.852 -5.6601,1.25 -11.4101,2.5 -17.2578,3.82 -5.9023,1.328 -11.6523,2.859 -17.3125,4.57 -5.6602,1.719 -10.6992,3.989 -15.1875,6.84 -4.5,2.809 -8.0898,6.488 -10.78906,10.938 -2.65234,4.492 -4.02343,10.121 -4.02343,16.871 0,7.461 1.52343,13.91 4.57031,19.379 3.01168,5.429 7.07028,9.921 12.11328,13.441 5.0391,3.512 10.7383,6.129 17.1484,7.852 6.4414,1.718 13.0078,2.578 19.8008,2.578 7.5781,0 14.6094,-0.899 21.0977,-2.7 6.4804,-1.761 12.1797,-4.609 17.0703,-8.48 4.8828,-3.859 8.7498,-8.711 11.6018,-14.57 2.808,-5.899 4.371,-12.891 4.648,-21.008 l -18.6404,0 c -1.1289,10.617 -4.9571,18.316 -11.5196,23.078"
                               style="fill:#000000;fill-opacity:1;fill-rule:nonzero;stroke:none"
                               id="path3514"
                               inkscape:connector-curvature="0" />
                            <path
                               d="m 227.848,398.59 0,-15.512 -21.328,0 0,-66.449 c 0,-2.07 0.199,-3.711 0.546,-4.961 0.313,-1.25 0.981,-2.219 1.954,-2.891 0.98,-0.699 2.308,-1.129 4.027,-1.359 1.723,-0.199 3.98,-0.32 6.723,-0.32 l 8.078,0 0,-15.5 -13.442,0 c -4.566,0 -8.468,0.308 -11.707,0.929 -3.25,0.629 -5.859,1.762 -7.859,3.442 -1.992,1.64 -3.473,3.98 -4.453,7.027 -0.981,3.012 -1.438,7.031 -1.438,11.992 l 0,68.09 -18.211,0 0,15.512 18.211,0 0,32.066 17.61,0 0,-32.066 21.289,0 0,0"
                               style="fill:#000000;fill-opacity:1;fill-rule:nonzero;stroke:none"
                               id="path3516"
                               inkscape:connector-curvature="0" />
                            <path
                               d="m 365.469,298.43 c -8.012,-6.09 -18.09,-9.102 -30.199,-9.102 -8.551,0 -15.973,1.371 -22.262,4.141 -6.289,2.73 -11.559,6.597 -15.82,11.558 -4.301,4.961 -7.5,10.903 -9.61,17.821 -2.148,6.91 -3.359,14.41 -3.629,22.531 0,8.168 1.25,15.59 3.707,22.391 2.5,6.718 5.973,12.609 10.461,17.578 4.5,4.961 9.813,8.82 15.942,11.558 6.14,2.774 12.847,4.141 20.16,4.141 9.531,0 17.418,-1.949 23.711,-5.859 6.289,-3.95 11.289,-8.95 15.078,-15.04 3.789,-6.05 6.441,-12.699 7.89,-19.839 1.442,-7.192 2.032,-14.032 1.758,-20.512 l -80.078,0 c -0.16,-4.688 0.391,-9.141 1.641,-13.359 1.25,-4.18 3.238,-7.93 6.008,-11.129 2.742,-3.25 6.293,-5.86 10.55,-7.782 4.262,-1.949 9.301,-2.89 15.121,-2.89 7.418,0 13.551,1.722 18.321,5.16 4.73,3.48 7.89,8.672 9.41,15.742 l 17.391,0 c -2.352,-12.031 -7.543,-21.051 -15.551,-27.109 z m -4.219,68.707 c -1.602,3.711 -3.75,6.922 -6.453,9.609 -2.649,2.703 -5.848,4.852 -9.488,6.41 -3.672,1.602 -7.692,2.383 -12.11,2.383 -4.57,0 -8.672,-0.781 -12.301,-2.383 -3.671,-1.558 -6.839,-3.75 -9.449,-6.527 -2.621,-2.731 -4.691,-5.93 -6.179,-9.602 -1.52,-3.679 -2.422,-7.539 -2.692,-11.679 l 61.442,0 c -0.27,4.14 -1.211,8.039 -2.77,11.789"
                               style="fill:#000000;fill-opacity:1;fill-rule:nonzero;stroke:none"
                               id="path3518"
                               inkscape:connector-curvature="0" />
                            <path
                               d="m 444.34,417.848 0,21.519 17.566,0 0,-21.519 -17.566,0 z m 17.566,-19.258 0,-106.992 -17.566,0 0,106.992 17.566,0"
                               style="fill:#000000;fill-opacity:1;fill-rule:nonzero;stroke:none"
                               id="path3520"
                               inkscape:connector-curvature="0" />
                            <path
                               d="m 548.199,398.59 0,-16.961 0.43,0 c 7.309,12.969 18.91,19.461 34.769,19.461 7.032,0 12.891,-0.981 17.579,-2.891 4.679,-1.961 8.511,-4.652 11.402,-8.09 2.891,-3.48 4.918,-7.543 6.098,-12.3 1.171,-4.77 1.75,-10.039 1.75,-15.86 l 0,-70.351 -17.571,0 0,72.422 c 0,6.636 -1.957,11.867 -5.777,15.738 -3.871,3.871 -9.18,5.781 -15.941,5.781 -5.391,0 -10.04,-0.82 -13.989,-2.461 -3.941,-1.68 -7.222,-4.019 -9.84,-7.031 -2.621,-3.051 -4.57,-6.598 -5.902,-10.668 -1.289,-4.063 -1.949,-8.512 -1.949,-13.352 l 0,-60.429 -17.578,0 0,106.992 16.519,0"
                               style="fill:#000000;fill-opacity:1;fill-rule:nonzero;stroke:none"
                               id="path3522"
                               inkscape:connector-curvature="0" />
                            <path
                               d="m 707.34,439.367 0,-55.269 0.43,0 c 2.886,5.929 7.457,10.269 13.679,12.929 6.207,2.692 13,4.063 20.457,4.063 8.293,0 15.512,-1.531 21.641,-4.57 6.141,-3.051 11.25,-7.153 15.32,-12.313 4.063,-5.148 7.153,-11.129 9.223,-17.891 2.066,-6.789 3.078,-13.937 3.078,-21.519 0,-7.578 -0.969,-14.77 -2.969,-21.52 -2.031,-6.757 -5.082,-12.66 -9.14,-17.699 -4.059,-5.039 -9.141,-9.019 -15.309,-11.91 -6.133,-2.891 -13.281,-4.34 -21.41,-4.34 -2.613,0 -5.543,0.27 -8.793,0.82 -3.238,0.551 -6.438,1.481 -9.641,2.7 -3.168,1.25 -6.179,2.929 -8.988,5.07 -2.852,2.148 -5.191,4.809 -7.148,7.969 l -0.43,0 0,-14.258 -17.57,0 0,147.738 17.57,0 z m 63.25,-78.75 c -1.332,4.762 -3.32,8.981 -5.981,12.731 -2.703,3.711 -6.171,6.679 -10.351,8.871 -4.219,2.23 -9.141,3.32 -14.809,3.32 -5.929,0 -10.972,-1.172 -15.109,-3.512 -4.141,-2.347 -7.543,-5.398 -10.16,-9.218 -2.621,-3.789 -4.492,-8.09 -5.66,-12.93 -1.18,-4.813 -1.762,-9.731 -1.762,-14.691 0,-5.239 0.621,-10.309 1.832,-15.2 1.25,-4.879 3.207,-9.211 5.898,-12.929 2.7,-3.75 6.168,-6.711 10.469,-9.02 4.262,-2.262 9.449,-3.402 15.512,-3.402 6.09,0 11.129,1.172 15.187,3.519 4.071,2.34 7.352,5.473 9.852,9.293 2.5,3.867 4.262,8.289 5.39,13.25 1.09,5 1.641,10.078 1.641,15.309 0,5 -0.633,9.84 -1.949,14.609"
                               style="fill:#000000;fill-opacity:1;fill-rule:nonzero;stroke:none"
                               id="path3524"
                               inkscape:connector-curvature="0" />
                            <path
                               d="m 926.328,291.598 0,16.949 -0.43,0 c -3.71,-6.598 -8.48,-11.488 -14.261,-14.57 -5.821,-3.129 -12.66,-4.649 -20.508,-4.649 -7.031,0 -12.891,0.942 -17.582,2.77 -4.68,1.879 -8.508,4.531 -11.399,7.968 -2.89,3.442 -4.921,7.582 -6.101,12.352 -1.168,4.719 -1.75,10 -1.75,15.82 l 0,70.352 17.582,0 0,-72.422 c 0,-6.641 1.949,-11.879 5.82,-15.75 3.86,-3.859 9.18,-5.781 15.93,-5.781 5.391,0 10.039,0.82 13.949,2.461 3.942,1.679 7.219,4.031 9.84,7.031 2.621,3.051 4.57,6.609 5.898,10.668 1.332,4.101 1.954,8.512 1.954,13.359 l 0,60.434 17.617,0 0,-106.992 -16.559,0 0,0"
                               style="fill:#000000;fill-opacity:1;fill-rule:nonzero;stroke:none"
                               id="path3526"
                               inkscape:connector-curvature="0" />
                            <path
                               d="m 1075.74,379.949 c -4.41,3.75 -10.35,5.59 -17.81,5.59 -6.33,0 -11.64,-1.172 -15.94,-3.512 -4.26,-2.347 -7.65,-5.429 -10.23,-9.3 -2.54,-3.868 -4.38,-8.321 -5.47,-13.36 -1.13,-5.039 -1.68,-10.238 -1.68,-15.629 0,-4.961 0.59,-9.8 1.76,-14.492 1.17,-4.687 3.01,-8.867 5.51,-12.5 2.46,-3.668 5.7,-6.598 9.72,-8.789 3.99,-2.219 8.75,-3.32 14.26,-3.32 8.71,0 15.51,2.269 20.39,6.84 4.88,4.531 7.89,10.941 9.02,19.222 l 17.97,0 c -1.91,-13.25 -6.83,-23.441 -14.8,-30.633 -7.93,-7.187 -18.71,-10.738 -32.39,-10.738 -8.12,0 -15.35,1.289 -21.6,3.91 -6.29,2.61 -11.52,6.36 -15.74,11.168 -4.22,4.84 -7.38,10.582 -9.53,17.301 -2.15,6.68 -3.2,14.031 -3.2,22.031 0,8.008 1.05,15.469 3.12,22.461 2.07,6.957 5.2,13.047 9.42,18.207 4.18,5.153 9.49,9.262 15.82,12.223 6.32,2.93 13.71,4.418 22.14,4.418 6.06,0 11.76,-0.699 17.07,-2.149 5.32,-1.449 10,-3.71 14.07,-6.718 4.06,-3.051 7.42,-6.871 10.04,-11.481 2.61,-4.652 4.29,-10.121 4.96,-16.492 l -18.21,0 c -1.36,6.801 -4.25,12.031 -8.67,15.742"
                               style="fill:#000000;fill-opacity:1;fill-rule:nonzero;stroke:none"
                               id="path3528"
                               inkscape:connector-curvature="0" />
                            <path
                               d="m 1182.93,439.367 0,-56.519 0.43,0 c 1.37,3.32 3.32,6.129 5.78,8.39 2.5,2.27 5.27,4.141 8.4,5.59 3.12,1.449 6.37,2.539 9.73,3.199 3.39,0.711 6.64,1.063 9.84,1.063 7.03,0 12.89,-0.981 17.58,-2.891 4.69,-1.961 8.51,-4.652 11.4,-8.09 2.89,-3.48 4.93,-7.543 6.1,-12.3 1.17,-4.77 1.76,-10.039 1.76,-15.86 l 0,-70.351 -17.58,0 0,72.422 c 0,6.636 -1.96,11.867 -5.82,15.738 -3.87,3.871 -9.18,5.781 -15.94,5.781 -5.35,0 -10.04,-0.82 -13.95,-2.461 -3.94,-1.68 -7.22,-4.019 -9.84,-7.031 -2.62,-3.051 -4.57,-6.598 -5.9,-10.668 -1.29,-4.063 -1.95,-8.512 -1.95,-13.352 l 0,-60.429 -17.62,0 0,147.769 17.58,0"
                               style="fill:#000000;fill-opacity:1;fill-rule:nonzero;stroke:none"
                               id="path3530"
                               inkscape:connector-curvature="0" />
                            <path
                               d="m 1515,418.469 c -7.54,5.23 -16.45,7.847 -26.8,7.847 -8.82,0 -16.4,-1.679 -22.65,-4.957 -6.29,-3.32 -11.49,-7.769 -15.55,-13.363 -4.06,-5.578 -7.07,-11.949 -8.98,-19.137 -1.96,-7.191 -2.9,-14.652 -2.9,-22.382 0,-8.399 0.94,-16.368 2.9,-23.868 1.91,-7.543 4.92,-14.101 8.98,-19.691 4.1,-5.578 9.3,-10.039 15.62,-13.32 6.37,-3.321 13.95,-4.961 22.78,-4.961 6.48,0 12.26,1.062 17.3,3.172 5,2.14 9.38,5.109 13.01,8.898 3.67,3.789 6.52,8.32 8.59,13.563 2.08,5.226 3.32,10.898 3.75,16.988 l 19.65,0 c -1.95,-18.629 -8.36,-33.129 -19.25,-43.481 -10.9,-10.347 -25.79,-15.5 -44.69,-15.5 -11.45,0 -21.45,1.95 -30,5.891 -8.56,3.91 -15.67,9.34 -21.33,16.25 -5.66,6.879 -9.88,15 -12.73,24.422 -2.82,9.367 -4.26,19.449 -4.26,30.187 0,10.75 1.52,20.86 4.57,30.321 3.04,9.449 7.5,17.691 13.36,24.761 5.86,7.028 13.16,12.579 21.91,16.637 8.79,4.063 18.83,6.102 30.12,6.102 7.73,0 15.04,-1.02 21.95,-3.09 6.88,-2.07 13.05,-5.121 18.4,-9.102 5.39,-4.027 9.88,-9.027 13.48,-15 3.59,-6.019 5.89,-12.968 7.03,-20.816 l -19.65,0 c -2.23,10.508 -7.07,18.359 -14.61,23.629"
                               style="fill:#000000;fill-opacity:1;fill-rule:nonzero;stroke:none"
                               id="path3532"
                               inkscape:connector-curvature="0" />
                            <path
                               d="m 1690.39,298.43 c -8.01,-6.09 -18.09,-9.102 -30.19,-9.102 -8.56,0 -15.98,1.371 -22.27,4.141 -6.25,2.73 -11.56,6.597 -15.82,11.558 -4.3,4.961 -7.5,10.903 -9.61,17.821 -2.15,6.91 -3.36,14.41 -3.63,22.531 0,8.168 1.25,15.59 3.71,22.391 2.5,6.718 5.97,12.609 10.47,17.578 4.49,4.961 9.8,8.82 15.93,11.558 6.14,2.774 12.86,4.141 20.16,4.141 9.53,0 17.42,-1.949 23.71,-5.859 6.29,-3.95 11.33,-8.95 15.12,-15.04 3.79,-6.05 6.41,-12.699 7.85,-19.839 1.45,-7.192 2.03,-14.032 1.76,-20.512 l -80.08,0 c -0.16,-4.688 0.43,-9.141 1.64,-13.359 1.25,-4.18 3.24,-7.93 6.02,-11.129 2.77,-3.25 6.25,-5.86 10.54,-7.782 4.26,-1.949 9.3,-2.89 15.12,-2.89 7.46,0 13.56,1.722 18.32,5.16 4.77,3.441 7.89,8.672 9.41,15.742 l 17.39,0 c -2.35,-12.031 -7.54,-21.051 -15.55,-27.109 z m -4.22,68.707 c -1.6,3.711 -3.75,6.922 -6.44,9.609 -2.7,2.703 -5.86,4.852 -9.5,6.41 -3.67,1.602 -7.69,2.383 -12.11,2.383 -4.57,0 -8.67,-0.781 -12.34,-2.383 -3.63,-1.558 -6.8,-3.75 -9.41,-6.527 -2.62,-2.731 -4.69,-5.93 -6.17,-9.602 -1.53,-3.679 -2.43,-7.539 -2.7,-11.679 l 61.45,0 c -0.28,4.14 -1.22,8.039 -2.78,11.789"
                               style="fill:#000000;fill-opacity:1;fill-rule:nonzero;stroke:none"
                               id="path3534"
                               inkscape:connector-curvature="0" />
                            <path
                               d="m 1784.77,398.59 0,-16.961 0.43,0 c 7.3,12.969 18.86,19.461 34.76,19.461 7.03,0 12.89,-0.981 17.58,-2.891 4.69,-1.961 8.48,-4.652 11.41,-8.09 2.85,-3.48 4.92,-7.543 6.09,-12.3 1.17,-4.77 1.76,-10.039 1.76,-15.86 l 0,-70.351 -17.58,0 0,72.422 c 0,6.636 -1.95,11.867 -5.82,15.738 -3.87,3.871 -9.18,5.781 -15.94,5.781 -5.39,0 -10.04,-0.82 -13.98,-2.461 -3.91,-1.68 -7.19,-4.019 -9.81,-7.031 -2.62,-3.051 -4.61,-6.598 -5.9,-10.668 -1.32,-4.063 -1.99,-8.512 -1.99,-13.352 l 0,-60.429 -17.58,0 0,106.992 16.57,0"
                               style="fill:#000000;fill-opacity:1;fill-rule:nonzero;stroke:none"
                               id="path3536"
                               inkscape:connector-curvature="0" />
                            <path
                               d="m 1971.45,398.59 0,-15.512 -21.33,0 0,-66.449 c 0,-2.07 0.19,-3.711 0.5,-4.961 0.36,-1.25 1.02,-2.219 2,-2.891 0.93,-0.699 2.3,-1.129 4.02,-1.359 1.72,-0.199 3.98,-0.32 6.72,-0.32 l 8.09,0 0,-15.5 -13.44,0 c -4.57,0 -8.48,0.308 -11.72,0.929 -3.24,0.629 -5.86,1.762 -7.85,3.442 -1.99,1.64 -3.48,3.98 -4.46,7.027 -0.97,3.012 -1.44,7.031 -1.44,11.992 l 0,68.09 -18.2,0 0,15.512 18.2,0 0,32.066 17.58,0 0,-32.066 21.33,0 0,0"
                               style="fill:#000000;fill-opacity:1;fill-rule:nonzero;stroke:none"
                               id="path3538"
                               inkscape:connector-curvature="0" />
                            <path
                               d="m 2049.26,398.59 0,-22.543 0.43,0 c 4.26,8.672 9.49,15.082 15.7,19.223 6.21,4.136 14.1,6.089 23.59,5.82 l 0,-18.641 c -7.03,0 -13.04,-0.972 -18,-2.89 -4.96,-1.95 -8.95,-4.762 -12,-8.469 -3.04,-3.75 -5.23,-8.281 -6.64,-13.602 -1.36,-5.308 -2.03,-11.398 -2.03,-18.281 l 0,-47.609 -17.61,0 0,106.992 16.56,0 0,0"
                               style="fill:#000000;fill-opacity:1;fill-rule:nonzero;stroke:none"
                               id="path3540"
                               inkscape:connector-curvature="0" />
                            <path
                               d="m 2216.68,291.598 0,16.949 -0.43,0 c -3.71,-6.598 -8.48,-11.488 -14.26,-14.57 -5.82,-3.129 -12.61,-4.649 -20.51,-4.649 -7.03,0 -12.89,0.942 -17.57,2.77 -4.69,1.879 -8.48,4.531 -11.37,7.968 -2.93,3.442 -4.96,7.582 -6.13,12.352 -1.18,4.719 -1.76,10 -1.76,15.82 l 0,70.352 17.58,0 0,-72.422 c 0,-6.641 1.95,-11.879 5.82,-15.75 3.86,-3.859 9.18,-5.781 15.93,-5.781 5.36,0 10.04,0.82 13.95,2.461 3.95,1.679 7.23,4.031 9.84,7.031 2.62,3.051 4.57,6.609 5.9,10.668 1.33,4.101 1.95,8.512 1.95,13.359 l 0,60.434 17.62,0 0,-106.992 -16.56,0 0,0"
                               style="fill:#000000;fill-opacity:1;fill-rule:nonzero;stroke:none"
                               id="path3542"
                               inkscape:connector-curvature="0" />
                            <path
                               d="m 2318.71,398.59 0,-15.742 0.43,0 c 7.97,12.14 19.49,18.199 34.53,18.199 6.64,0 12.62,-1.367 18.01,-4.141 5.39,-2.738 9.18,-7.418 11.41,-14.058 3.55,5.82 8.28,10.269 14.18,13.468 5.82,3.172 12.3,4.731 19.33,4.731 5.39,0 10.24,-0.59 14.57,-1.758 4.38,-1.172 8.09,-2.973 11.17,-5.473 3.13,-2.5 5.55,-5.699 7.27,-9.609 1.72,-3.937 2.58,-8.668 2.58,-14.18 l 0,-78.429 -17.58,0 0,70.148 c 0,3.32 -0.27,6.41 -0.86,9.301 -0.55,2.891 -1.56,5.43 -3.09,7.582 -1.52,2.109 -3.63,3.82 -6.32,5.039 -2.7,1.25 -6.18,1.871 -10.43,1.871 -8.71,0 -15.55,-2.5 -20.51,-7.461 -4.96,-4.961 -7.46,-11.601 -7.46,-19.84 l 0,-66.64 -17.58,0 0,70.148 c 0,3.442 -0.31,6.602 -0.94,9.531 -0.62,2.852 -1.68,5.391 -3.2,7.539 -1.52,2.153 -3.56,3.793 -6.1,4.961 -2.57,1.172 -5.85,1.762 -9.84,1.762 -5.12,0 -9.49,-1.051 -13.16,-3.121 -3.64,-2.039 -6.6,-4.539 -8.87,-7.43 -2.3,-2.89 -3.95,-5.89 -4.96,-9.019 -1.06,-3.09 -1.56,-5.66 -1.56,-7.77 l 0,-66.64 -17.62,0 0,106.988 16.6,0 0,0.043"
                               style="fill:#000000;fill-opacity:1;fill-rule:nonzero;stroke:none"
                               id="path3544"
                               inkscape:connector-curvature="0" />
                            <path
                               d="m 311.68,134.719 0,15.508 18.008,0 0,15.941 c 0,8.711 2.5,15.27 7.539,19.762 5.043,4.488 12.382,6.758 22.031,6.758 1.68,0 3.551,-0.161 5.699,-0.43 2.109,-0.27 4.02,-0.699 5.66,-1.25 l 0,-15.309 c -1.519,0.539 -3.16,0.93 -4.961,1.129 -1.789,0.231 -3.429,0.309 -4.957,0.309 -4.293,0 -7.582,-0.821 -9.922,-2.457 -2.339,-1.684 -3.507,-4.84 -3.507,-9.532 l 0,-14.878 20.66,0 0,-15.551 -20.66,0 0,-91.4417 -17.582,0 0,91.4417 -18.008,0 0,0"
                               style="fill:#000000;fill-opacity:1;fill-rule:nonzero;stroke:none"
                               id="path3546"
                               inkscape:connector-curvature="0" />
                            <path
                               d="m 498.117,43.2383 0,16.9883 -0.39,0 c -3.75,-6.6368 -8.469,-11.4883 -14.289,-14.6094 -5.782,-3.0899 -12.622,-4.6484 -20.469,-4.6484 -7.031,0 -12.93,0.9374 -17.621,2.8085 -4.692,1.8399 -8.469,4.5 -11.371,7.9727 -2.887,3.4375 -4.918,7.5391 -6.09,12.3086 -1.168,4.7578 -1.758,10.0391 -1.758,15.8203 l 0,70.3481 17.578,0 0,-72.4184 c 0,-6.6406 1.91,-11.8789 5.82,-15.75 3.832,-3.8594 9.141,-5.7813 15.903,-5.7813 5.386,0 10.039,0.8204 13.976,2.5 3.953,1.6407 7.231,3.9922 9.852,7.0313 2.621,3.0078 4.57,6.5703 5.898,10.668 1.293,4.0625 1.953,8.5117 1.953,13.3203 l 0,60.4301 17.579,0 0,-106.9887 -16.571,0 z m -37.847,144.0587 0,-21.52 -18.633,0 0,21.52 18.633,0 z m 38.91,0 0,-21.52 -18.633,0 0,21.52 18.633,0"
                               style="fill:#000000;fill-opacity:1;fill-rule:nonzero;stroke:none"
                               id="path3548"
                               inkscape:connector-curvature="0" />
                            <path
                               d="m 599.527,150.227 0,-22.539 0.43,0 c 4.301,8.71 9.531,15.121 15.742,19.261 6.207,4.141 14.071,6.051 23.598,5.778 l 0,-18.629 c -7.07,0 -13.047,-0.981 -18.008,-2.899 -5,-1.91 -8.992,-4.761 -12.031,-8.472 -3.008,-3.75 -5.238,-8.239 -6.602,-13.559 -1.406,-5.309 -2.066,-11.3985 -2.066,-18.3203 l 0,-47.5704 -17.621,0 0,106.9497 16.558,0"
                               style="fill:#000000;fill-opacity:1;fill-rule:nonzero;stroke:none"
                               id="path3550"
                               inkscape:connector-curvature="0" />
                            <path
                               d="m 887.109,170.109 c -7.5,5.239 -16.453,7.848 -26.8,7.848 -8.832,0 -16.36,-1.641 -22.653,-4.961 -6.289,-3.316 -11.449,-7.769 -15.547,-13.359 -4.062,-5.578 -7.07,-11.949 -8.992,-19.137 -1.91,-7.152 -2.89,-14.613 -2.89,-22.344 0,-8.437 0.98,-16.406 2.89,-23.906 1.922,-7.5 4.93,-14.0625 8.992,-19.6523 4.098,-5.5782 9.297,-10.0391 15.618,-13.3594 6.371,-3.3203 13.953,-4.961 22.781,-4.961 6.48,0 12.262,1.0625 17.301,3.211 5.039,2.1406 9.379,5.1094 13.05,8.8984 3.629,3.793 6.481,8.2813 8.547,13.5625 2.114,5.2305 3.321,10.8985 3.75,16.9492 l 19.653,0 c -1.911,-18.6289 -8.36,-33.1211 -19.219,-43.4804 -10.934,-10.3516 -25.82,-15.5 -44.723,-15.5 -11.449,0 -21.449,1.9492 -30,5.8906 -8.558,3.9492 -15.668,9.3398 -21.328,16.25 -5.66,6.8789 -9.883,15.0391 -12.742,24.418 -2.809,9.3711 -4.207,19.4534 -4.207,30.2304 0,10.742 1.476,20.859 4.527,30.32 3.039,9.45 7.5,17.692 13.36,24.719 5.863,7.031 13.16,12.582 21.91,16.641 8.793,4.062 18.832,6.14 30.121,6.14 7.73,0 15.039,-1.058 21.949,-3.129 6.883,-2.07 13.012,-5.121 18.402,-9.101 5.391,-3.988 9.879,-8.988 13.481,-15 3.59,-6.02 5.93,-12.93 7.027,-20.82 l -19.687,0 c -2.192,10.55 -7.032,18.402 -14.571,23.632"
                               style="fill:#000000;fill-opacity:1;fill-rule:nonzero;stroke:none"
                               id="path3552"
                               inkscape:connector-curvature="0" />
                            <path
                               d="m 984.258,118.668 c 2.219,6.832 5.512,12.77 9.961,17.809 4.41,5.043 9.841,9.023 16.331,11.91 6.48,2.89 13.94,4.34 22.34,4.34 8.56,0 16.06,-1.45 22.46,-4.34 6.41,-2.887 11.84,-6.867 16.25,-11.91 4.42,-5.039 7.74,-10.977 9.96,-17.809 2.19,-6.84 3.28,-14.141 3.28,-22.0391 0,-7.8516 -1.09,-15.1523 -3.28,-21.9101 -2.22,-6.7618 -5.54,-12.6602 -9.96,-17.6915 -4.41,-5.039 -9.84,-8.9882 -16.25,-11.8007 -6.4,-2.8477 -13.9,-4.2578 -22.46,-4.2578 -8.4,0 -15.86,1.4101 -22.34,4.2578 -6.49,2.8125 -11.921,6.7617 -16.331,11.8007 -4.422,5.0313 -7.742,10.9297 -9.961,17.6915 -2.192,6.7578 -3.281,14.0585 -3.281,21.9101 0,7.8591 1.089,15.1991 3.281,22.0391 z m 17.932,-39.3008 c 1.72,-5.0391 4.1,-9.2578 7.15,-12.6172 3,-3.4023 6.56,-5.9727 10.62,-7.7734 4.1,-1.7969 8.4,-2.6993 12.97,-2.6993 4.53,0 8.83,0.9024 12.93,2.6993 4.06,1.8007 7.62,4.3711 10.66,7.7734 3.01,3.3594 5.39,7.5781 7.11,12.6172 1.72,5.039 2.62,10.7812 2.62,17.2617 0,6.4881 -0.9,12.2301 -2.62,17.3091 -1.72,5.039 -4.1,9.261 -7.11,12.691 -3.04,3.48 -6.6,6.098 -10.66,7.898 -4.1,1.789 -8.4,2.692 -12.93,2.692 -4.57,0 -8.87,-0.903 -12.97,-2.692 -4.06,-1.8 -7.62,-4.418 -10.62,-7.898 -3.05,-3.43 -5.43,-7.652 -7.15,-12.691 -1.76,-5.079 -2.581,-10.821 -2.581,-17.3091 0,-6.4805 0.821,-12.2227 2.581,-17.2617"
                               style="fill:#000000;fill-opacity:1;fill-rule:nonzero;stroke:none"
                               id="path3554"
                               inkscape:connector-curvature="0" />
                            <path
                               d="m 1164.53,150.227 0,-15.7 0.43,0 c 8.01,12.141 19.49,18.2 34.53,18.2 6.64,0 12.62,-1.368 18.01,-4.137 5.39,-2.781 9.18,-7.461 11.41,-14.102 3.55,5.821 8.32,10.27 14.18,13.469 5.86,3.172 12.3,4.77 19.33,4.77 5.39,0 10.24,-0.59 14.57,-1.758 4.38,-1.172 8.09,-3.012 11.21,-5.512 3.09,-2.457 5.51,-5.699 7.23,-9.609 1.72,-3.942 2.58,-8.668 2.58,-14.18 l 0,-78.4297 -17.58,0 0,70.1487 c 0,3.32 -0.27,6.41 -0.86,9.34 -0.55,2.89 -1.56,5.39 -3.09,7.543 -1.52,2.148 -3.63,3.828 -6.32,5.078 -2.7,1.211 -6.18,1.832 -10.43,1.832 -8.71,0 -15.55,-2.461 -20.51,-7.422 -4.96,-5 -7.46,-11.602 -7.46,-19.879 l 0,-66.6407 -17.58,0 0,70.1487 c 0,3.441 -0.31,6.64 -0.94,9.531 -0.62,2.891 -1.68,5.391 -3.2,7.539 -1.52,2.152 -3.56,3.793 -6.09,4.961 -2.58,1.18 -5.86,1.762 -9.85,1.762 -5.12,0 -9.49,-1.012 -13.12,-3.082 -3.68,-2.071 -6.64,-4.571 -8.91,-7.469 -2.3,-2.891 -3.95,-5.891 -4.96,-8.981 -1.06,-3.121 -1.56,-5.699 -1.56,-7.769 l 0,-66.6407 -17.58,0 0,106.9887 16.56,0"
                               style="fill:#000000;fill-opacity:1;fill-rule:nonzero;stroke:none"
                               id="path3556"
                               inkscape:connector-curvature="0" />
                            <path
                               d="m 1385.16,150.227 0,-14.489 0.39,0 c 2.89,5.93 7.46,10.27 13.67,12.961 6.21,2.66 13.05,4.028 20.47,4.028 8.28,0 15.51,-1.528 21.64,-4.571 6.13,-3.008 11.25,-7.109 15.31,-12.308 4.06,-5.149 7.15,-11.129 9.22,-17.891 2.07,-6.758 3.09,-13.937 3.09,-21.5195 0,-7.5781 -0.98,-14.7695 -2.97,-21.5195 -2.03,-6.7618 -5.04,-12.6602 -9.14,-17.6992 -4.07,-5.0391 -9.14,-8.9805 -15.32,-11.8711 -6.13,-2.9297 -13.28,-4.3789 -21.4,-4.3789 -2.62,0 -5.55,0.2695 -8.79,0.8593 -3.24,0.5508 -6.45,1.4492 -9.65,2.6602 -3.16,1.25 -6.17,2.9297 -8.98,5.0703 -2.86,2.1484 -5.2,4.8086 -7.15,7.9687 l -0.43,0 0,-55.03902 -17.58,0 0,147.73872 17.62,0 z m 63.2,-37.969 c -1.33,4.769 -3.32,9.019 -6.02,12.73 -2.65,3.75 -6.13,6.68 -10.31,8.91 -4.22,2.192 -9.18,3.321 -14.8,3.321 -5.94,0 -10.98,-1.172 -15.12,-3.52 -4.14,-2.383 -7.54,-5.422 -10.16,-9.211 -2.61,-3.789 -4.53,-8.129 -5.7,-12.929 -1.17,-4.852 -1.76,-9.731 -1.76,-14.6918 0,-5.2383 0.63,-10.3086 1.88,-15.2383 1.25,-4.8789 3.2,-9.1797 5.9,-12.9297 2.69,-3.7109 6.17,-6.7109 10.43,-8.9804 4.29,-2.2696 9.45,-3.4415 15.54,-3.4415 6.06,0 11.14,1.1719 15.2,3.5196 4.06,2.3398 7.34,5.4726 9.84,9.332 2.46,3.8281 4.26,8.2891 5.39,13.25 1.1,4.9609 1.64,10.0703 1.64,15.3086 0.04,4.9605 -0.62,9.8005 -1.95,14.5705"
                               style="fill:#000000;fill-opacity:1;fill-rule:nonzero;stroke:none"
                               id="path3558"
                               inkscape:connector-curvature="0" />
                            <path
                               d="m 1604.1,43.2383 0,16.9883 -0.43,0 c -3.71,-6.6368 -8.47,-11.4883 -14.26,-14.6094 -5.82,-3.0899 -12.65,-4.6484 -20.5,-4.6484 -7.03,0 -12.89,0.9374 -17.58,2.8085 -4.69,1.8399 -8.52,4.5 -11.41,7.9727 -2.89,3.4375 -4.92,7.5391 -6.09,12.3086 -1.17,4.7578 -1.76,10.0391 -1.76,15.8203 l 0,70.3481 17.58,0 0,-72.4184 c 0,-6.6406 1.95,-11.8789 5.82,-15.75 3.83,-3.8594 9.14,-5.7813 15.94,-5.7813 5.35,0 10,0.8204 13.94,2.5 3.95,1.6407 7.23,3.9922 9.85,7.0313 2.61,3.0078 4.57,6.5703 5.89,10.668 1.29,4.0625 1.96,8.5117 1.96,13.3203 l 0,60.4301 17.57,0 0,-106.9887 -16.52,0"
                               style="fill:#000000;fill-opacity:1;fill-rule:nonzero;stroke:none"
                               id="path3560"
                               inkscape:connector-curvature="0" />
                            <path
                               d="m 1735.31,150.227 0,-15.508 -21.33,0 0,-66.4417 c 0,-2.0781 0.2,-3.7187 0.55,-4.9687 0.31,-1.2109 0.98,-2.1797 1.95,-2.8906 0.94,-0.6992 2.31,-1.1289 4.03,-1.3203 1.72,-0.2383 3.98,-0.3204 6.76,-0.3204 l 8.04,0 0,-15.5 -13.43,0 c -4.58,0 -8.48,0.2696 -11.72,0.8907 -3.25,0.6289 -5.86,1.7617 -7.86,3.4414 -1.99,1.6406 -3.47,3.9883 -4.45,7.0273 -0.97,3.0508 -1.44,7.0313 -1.44,11.9922 l 0,68.0901 -18.21,0 0,15.551 18.21,0 0,32.07 17.57,0 0,-32.07 21.33,0 0,-0.043"
                               style="fill:#000000;fill-opacity:1;fill-rule:nonzero;stroke:none"
                               id="path3562"
                               inkscape:connector-curvature="0" />
                            <path
                               d="m 1798.24,169.488 0,21.52 17.58,0 0,-21.52 -17.58,0 z m 17.58,-19.261 0,-106.9887 -17.58,0 0,106.9887 17.58,0"
                               style="fill:#000000;fill-opacity:1;fill-rule:nonzero;stroke:none"
                               id="path3564"
                               inkscape:connector-curvature="0" />
                            <path
                               d="m 1902.11,150.227 0,-16.95 0.43,0 c 7.3,12.961 18.87,19.45 34.76,19.45 7.04,0 12.9,-0.977 17.58,-2.887 4.69,-1.961 8.48,-4.613 11.41,-8.09 2.85,-3.441 4.92,-7.543 6.09,-12.301 1.17,-4.769 1.76,-10.043 1.76,-15.82 l 0,-70.3907 -17.58,0 0,72.4607 c 0,6.598 -1.95,11.828 -5.82,15.699 -3.86,3.872 -9.18,5.821 -15.94,5.821 -5.39,0 -10.03,-0.821 -13.94,-2.5 -3.95,-1.641 -7.23,-3.981 -9.84,-7.031 -2.62,-3.051 -4.61,-6.598 -5.9,-10.661 -1.33,-4.07 -1.96,-8.519 -1.96,-13.359 l 0,-60.4297 -17.61,0 0,106.9887 16.56,0"
                               style="fill:#000000;fill-opacity:1;fill-rule:nonzero;stroke:none"
                               id="path3566"
                               inkscape:connector-curvature="0" />
                            <path
                               d="m 2123.36,13.0391 c -8.01,-8.71098 -20.59,-13.0469125 -37.7,-13.0469125 -4.96,0 -10.04,0.5468745 -15.19,1.6367225 -5.16,1.14062 -9.88,2.89843 -14.06,5.39843 -4.22,2.5 -7.7,5.74216 -10.47,9.71876 -2.78,4.0312 -4.26,8.9101 -4.57,14.6914 l 17.61,0 c 0.12,-3.1602 1.14,-5.8203 3.01,-8.0508 1.84,-2.2187 4.14,-4.0195 6.8,-5.3906 2.73,-1.3672 5.62,-2.3789 8.83,-3.0078 3.16,-0.6211 6.21,-0.9297 9.1,-0.9297 5.82,0 10.7,1.0078 14.69,3 4.02,2 7.3,4.7695 9.92,8.2891 2.62,3.5117 4.53,7.7695 5.7,12.7304 1.17,4.961 1.76,10.4297 1.76,16.3281 l 0,7.0704 -0.39,0 c -3.05,-6.6368 -7.66,-11.4883 -13.79,-14.6094 -6.13,-3.0899 -12.66,-4.6484 -19.53,-4.6484 -8.01,0 -15,1.4492 -20.94,4.3398 -5.9,2.8906 -10.86,6.7891 -14.88,11.7187 -3.99,4.8789 -6.99,10.5821 -8.99,17.1407 -1.99,6.5703 -3,13.5195 -3,20.8203 0,6.3277 0.82,12.8597 2.5,19.5387 1.64,6.711 4.41,12.77 8.24,18.243 3.87,5.429 8.98,9.918 15.31,13.429 6.37,3.52 14.14,5.278 23.4,5.278 6.76,0 12.97,-1.489 18.63,-4.45 5.67,-2.968 10.08,-7.429 13.24,-13.359 l 0.2,0 0,15.309 16.56,0 0,-97.8481 c 0,-17.5391 -4.02,-30.6719 -11.99,-39.3398 z m -22.46,48.0898 c 4.06,2.418 7.34,5.6211 9.8,9.5273 2.5,3.9415 4.34,8.4024 5.51,13.3633 1.17,4.9571 1.76,9.918 1.76,14.8789 0,4.6916 -0.55,9.3396 -1.64,13.8716 -1.13,4.57 -2.89,8.668 -5.31,12.296 -2.39,3.672 -5.55,6.602 -9.42,8.832 -3.87,2.192 -8.55,3.282 -14.06,3.282 -5.66,0 -10.51,-1.051 -14.49,-3.203 -3.99,-2.149 -7.27,-5 -9.85,-8.559 -2.54,-3.59 -4.41,-7.73 -5.58,-12.418 -1.17,-4.691 -1.76,-9.613 -1.76,-14.7227 0,-4.8085 0.51,-9.6484 1.44,-14.5 0.98,-4.8007 2.62,-9.1796 5,-13.1211 2.35,-3.9492 5.43,-7.1093 9.3,-9.5273 3.87,-2.4297 8.71,-3.6016 14.49,-3.6016 5.79,0 10.71,1.211 14.81,3.6016"
                               style="fill:#000000;fill-opacity:1;fill-rule:nonzero;stroke:none"
                               id="path3568"
                               inkscape:connector-curvature="0" />
                            <path
                               d="m 2454.26,1329.33 c -6.06,2.58 -13.05,-0.27 -15.63,-6.29 -0.08,-0.08 -0.31,-0.66 -0.62,-1.52 -2.07,-1.06 -3.79,-2.74 -4.92,-4.92 -0.94,-1.72 -85.94,-160.71 -269.11,-326.803 -2.61,-1.059 -4.8,-2.969 -6.25,-5.629 -11.28,-10.148 -22.96,-20.309 -35.03,-30.469 -195.16,-164.449 -530.24,-358.59 -1018.13,-350.422 -6.33,0.071 -12.62,0.27 -18.83,0.422 -254.22,69.11 -572.65,328.399 -576.092,331.18 -2.5,2.07 -5.699,2.969 -8.789,2.648 l 0,0 -65.82,-6.988 C 356.84,922.488 346.84,921.438 231.719,897.527 140.387,878.629 14.7266,831.008 9.40625,828.977 3.23828,826.629 0.199219,819.719 2.45703,813.59 c 1.41016,-3.602 4.38281,-6.102 7.66017,-7.152 0.6992,-0.782 1.5195,-1.598 2.4609,-2.149 3.0391,-2.031 296.8709,-191.41 979.3009,-221.48 47.381,-6.641 96.321,-11.84 146.561,-15.36 l 37.3,-7.652 c 129.3,-28.438 432.11,-94.879 873.28,6.601 0.04,0.04 0.24,0.2 0.43,0.231 0.47,0.078 0.86,0.199 1.21,0.32 0.36,0.231 0.67,0.391 1.06,0.5 0.35,0.16 0.66,0.36 1.01,0.629 0.32,0.16 0.59,0.391 0.9,0.66 0.32,0.239 0.67,0.43 0.9,0.711 0.24,0.309 0.59,0.617 0.86,0.969 0.08,0.078 0.23,0.199 0.35,0.359 100.43,130.313 143.48,196.282 200.2,306.993 110.27,215.43 203.63,433.71 204.65,435.9 2.57,6.05 -0.28,13.04 -6.33,15.66 z m -72.58,-134.61 c -26.88,-59.3 -61.56,-133.91 -100.16,-212.583 -1.56,-0.469 -2.93,-1.289 -4.22,-2.34 -1.64,-1.41 -56.13,-47.809 -150.54,-108.277 25.58,48.238 44.37,85.859 50.31,97.847 91.41,82.463 159.02,163.483 204.61,225.353 z M 2129.49,928.309 c -11.79,-22.961 -26.79,-51.36 -43.47,-82.18 -36.68,-22.27 -78.01,-45.711 -123.36,-68.992 21.6,29.301 37.22,50.781 37.57,51.25 1.18,1.679 1.84,3.519 2.15,5.472 47.19,31.329 89.65,63.36 127.11,94.45 z m -89.96,-339.532 c -34.02,-7.73 -67.11,-14.449 -99.45,-20.269 12.73,17.89 34.69,49.219 59.33,86.64 60.9,21.758 104.26,42.852 131.72,58.051 -25.04,-36.293 -54.33,-75.859 -91.6,-124.422 z M 1909.26,566.52 c -0.78,-1.102 -1.37,-2.313 -1.76,-3.602 -44.38,-7.301 -87.11,-13 -128.05,-17.141 12.62,14.332 31.49,36.09 52.78,61.832 49.1,10.86 92.42,22.848 130.15,34.957 -30.08,-44.527 -52.73,-75.507 -53.12,-76.046 z m -51.06,73.007 c 2.15,2.692 4.26,5.422 6.41,8.082 19.34,24.418 43.79,56.758 66.68,87.34 48.05,23.207 92.23,47.039 131.87,70 -4.53,-8.16 -9.21,-16.32 -13.98,-24.64 -20.39,-35.469 -43.01,-71.45 -64.1,-103.52 -36.1,-12.539 -78.24,-25.391 -126.88,-37.262 z m -331.21,-102.5 c -95.82,3.243 -176.13,13.629 -239.88,24.762 113.71,-3.012 215,0.82 304.8,9.059 -34.1,-19.18 -59.06,-29.328 -59.49,-29.45 -2.34,-0.98 -4.14,-2.5 -5.43,-4.371 z M 587.77,647.648 c 10.039,5.508 22.777,12.34 36.289,19.02 49.218,-15.699 102.031,-30.578 157.82,-44.02 -0.281,-0.269 -0.43,-0.511 -0.629,-0.742 -69.652,7.114 -134.141,15.903 -193.48,25.742 z m -546.7934,167.5 c 31.3632,11.29 89.8004,31.602 145.1914,46.758 9.691,-6.289 81.801,-51.758 202.109,-105.547 -56.8,-18.082 -98.078,-36.25 -100.578,-37.382 -1.062,-0.469 -2.043,-1.098 -2.859,-1.719 -133.633,40.59 -212.7306,80.551 -243.8634,97.89 z m 380.9724,-73.48 c 49.957,-21.289 106.957,-43.391 170.078,-64.57 -20.429,-10.782 -35.66,-19.68 -36.949,-20.348 -1.289,-0.781 -2.351,-1.762 -3.199,-2.852 -89.031,15.981 -165.902,34.219 -231.289,52.809 22.34,8.91 59.019,22.621 101.359,34.961 z m 333.25,-9.371 c -15.82,-2.231 -35.59,-5.777 -56.883,-11.449 -38.976,18.601 -75.898,37.82 -109.918,56.64 45.079,7.461 75.192,11.059 79.02,11.571 27.309,-18.442 56.762,-37.661 87.781,-56.762 z M 856.52,673.859 c -8.161,-3.121 -16.68,-6.8 -23.59,-10.902 -34.024,12.891 -67.274,26.883 -99.41,41.492 27.027,5.231 48.199,6.989 55.5,7.418 21.957,-12.929 44.57,-25.777 67.5,-38.008 z m 111.328,-53.871 c -34.649,8.828 -69.098,19.418 -103.051,31.41 7.742,2.93 15.672,5.391 21.18,7.032 27.113,-13.832 54.531,-26.801 81.871,-38.442 z m -311.481,61.571 c 3.981,1.679 7.973,3.281 11.75,4.718 9.422,3.563 18.871,6.532 28.172,9.18 36.129,-17.07 73.867,-33.59 112.731,-48.707 -2.141,-1.562 -4.141,-3.16 -6.051,-4.57 -51.602,11.988 -100.551,25.269 -146.602,39.379 z M 835.938,636.52 c 3.832,-1.411 7.691,-2.821 11.64,-4.301 -4.609,1.019 -9.14,1.988 -13.629,2.969 0.739,0.429 1.278,0.902 1.989,1.332 z m -170.86,74.019 c -1.801,-0.66 -3.519,-1.25 -5.281,-1.91 -11.988,-4.461 -25.027,-10.281 -37.609,-16.289 -59.848,19.18 -114.258,39.566 -162.809,59.488 7.918,1.949 15.969,3.828 24.019,5.621 24.02,5.199 46.95,9.649 67.852,13.52 34.77,-19.77 73.008,-40.313 113.828,-60.43 z m 1153.942,19.258 c 47.07,22.461 90.78,46.371 131.33,71.051 -10.15,-13.86 -22.15,-30.149 -34.92,-47.11 -38.52,-18.55 -79.77,-36.75 -123.09,-53.859 14.42,14.141 23.56,23.508 23.75,23.789 1.68,1.75 2.5,3.941 2.93,6.129 z m -84.14,-51.52 c -116.52,-41.488 -247.03,-73.871 -386.4,-85.668 156.99,19.957 294.84,60.547 413.94,111.52 -8.24,-7.93 -17.54,-16.68 -27.54,-25.852 z M 1495,588.43 c 67.34,12.617 131.99,29.527 193.32,49.058 -8.71,-7.14 -17.46,-14.14 -25.98,-20.781 -7.42,-5.578 -14.84,-10.898 -22.22,-15.93 C 1595,595.418 1546.6,591.199 1495,588.43 Z m 252.62,69.097 c 48.43,17.422 94.37,36.25 137.58,55.86 -14.07,-18.508 -27.58,-36.207 -39.26,-50.938 -8.71,-11.011 -17.27,-21.562 -25.55,-31.672 -39.96,-8.75 -83.79,-16.8 -131.52,-23.64 20.19,16.019 40.47,33.75 58.75,50.39 z m -1310.241,249.301 60.98,6.41 c 15,-12.039 67.071,-53.558 139.61,-103.988 -19.301,-2.73 -48.012,-7.07 -82.461,-13.242 -80.16,45.898 -140.352,86.68 -167.231,105.469 13.911,1.64 29.34,3.242 49.102,5.351 z M 236.598,874.129 c 60.199,12.539 91.332,18.719 118.789,22.93 0.781,-1.403 1.761,-2.731 3.281,-3.711 1.531,-1.211 64.141,-47.149 161.02,-104.098 -13.321,-2.621 -27.071,-5.391 -41.25,-8.473 -18.989,-4.027 -37.461,-8.828 -55.04,-13.828 -101.679,43.86 -172.539,83.707 -205,103.16 6.129,1.45 12.258,2.848 18.2,4.02 z M 1577.58,536.09 c 18.87,9.488 43.32,23.078 69.45,40.578 53.63,6.289 102.74,14.141 147.38,23.012 -28.12,-33.242 -48.47,-55.66 -48.82,-56.051 -0.28,-0.281 -0.36,-0.633 -0.59,-1.02 -59.77,-5 -115.59,-6.871 -167.42,-6.519 z m 657.15,352.578 c -25.39,-49.539 -48.09,-90 -74.5,-131.57 -2.42,0 -4.8,-0.739 -6.87,-2.219 -1.13,-0.82 -42.89,-30.281 -130.98,-64.379 16.1,25.078 32.39,51.637 47.54,78.008 11.8,20.551 23.28,41.051 34.03,60.66 69.14,42.309 121.56,80 153.43,104.301 -7.46,-14.922 -15.08,-29.879 -22.65,-44.801"
                               style="fill:#97979b;fill-opacity:1;fill-rule:nonzero;stroke:none"
                               id="path3570"
                               inkscape:connector-curvature="0" />
                            <path
                               d="m 513.52,1509.88 c -17.313,113.28 -58.172,147.85 -177.743,147.85 -105.39,0 -185.578,-72.35 -185.578,-168.28 0,-77.07 56.598,-130.55 213.899,-201.33 184.019,-83.36 253.242,-154.14 253.242,-262.66 0,-154.144 -144.723,-261.093 -349.184,-261.093 -94.367,0 -155.699,10.981 -259.52709,47.153 l 0,212.34 c 0,4.73 3.16799,12.62 7.84769,12.62 l 28.3203,0 c 7.8593,0 14.1797,-23.6 18.8711,-58.203 6.289,-61.328 17.3086,-92.82 39.34,-106.961 50.351,-33.039 119.531,-55.039 174.57,-55.039 116.399,0 201.328,69.18 201.328,163.563 0,78.67 -58.168,132.15 -218.636,202.89 -97.5,42.46 -248.4731,108.55 -248.4731,262.69 0,147.86 147.8511,261.1 344.4531,261.1 67.617,0 157.27,-14.18 210.738,-33.05 l 0,-201.33 c 0,-6.29 -4.691,-9.45 -15.699,-9.45 l -20.473,0 c -11.019,0 -11.019,3.16 -14.136,26.76 l -3.16,20.43"
                               style="fill:#009d81;fill-opacity:1;fill-rule:nonzero;stroke:none"
                               id="path3572"
                               inkscape:connector-curvature="0" />
                            <path
                               d="m 1487.11,1399.8 c -9.41,0 -11.02,9.41 -14.14,31.44 -18.87,124.26 -124.26,221.8 -239.1,221.8 -176.17,0 -301.991,-162.03 -301.991,-390.08 0,-234.37 135.271,-413.671 313.001,-413.671 83.36,0 168.28,39.34 220.2,103.828 15.74,18.871 20.47,23.59 28.32,18.871 l 25.15,-17.308 c 4.73,-3.16 6.29,-4.731 6.29,-9.453 0,-22.028 -97.5,-180.86 -333.43,-180.86 -240.672,0 -412.113,190.313 -412.113,456.133 0.043,294.1 199.762,487.58 503.363,487.58 80.19,0 143.12,-12.58 232.77,-47.19 l 9.45,-204.45 c 1.57,-50.35 3.13,-56.64 -9.45,-56.64 l -28.32,0 0,0"
                               style="fill:#009d81;fill-opacity:1;fill-rule:nonzero;stroke:none"
                               id="path3574"
                               inkscape:connector-curvature="0" />
                            <path
                               d="m 2375.78,1399.8 c -9.41,0 -11.01,9.41 -14.14,31.44 -18.87,124.26 -124.26,221.8 -239.1,221.8 -176.17,0 -301.99,-162.03 -301.99,-390.08 0,-234.37 135.27,-413.671 313,-413.671 83.36,0 168.33,39.34 220.2,103.828 15.74,18.871 20.47,23.59 28.32,18.871 l 25.16,-17.308 c 4.72,-3.16 6.29,-4.731 6.29,-9.453 0,-22.028 -97.5,-180.86 -333.44,-180.86 -240.67,0 -412.11,190.313 -412.11,456.133 0.04,294.1 199.76,487.58 503.36,487.58 80.19,0 143.12,-12.58 232.77,-47.19 l 9.45,-204.45 c 1.57,-50.35 3.13,-56.64 -9.45,-56.64 l -28.32,0 0,0"
                               style="fill:#009d81;fill-opacity:1;fill-rule:nonzero;stroke:none"
                               id="path3576"
                               inkscape:connector-curvature="0" />
                          </g>
                        </g>
                      </g>
                    </g>
                  </g>
                </g>
              </g>
            </g>
          </g>
        </g>
      </g>
    </g>
    <g
       id="g3365"
       transform="matrix(0.12179566,0,0,-0.12179566,5,1047.3622)">
      <path
         d="m 1223.77,201.875 -213.84,0 -254.16,272.883 0,156.238 246.24,272.156 220.32,0 -283.678,-352.797 285.118,-348.48 0,0 z m 224.64,0 -192.24,0 0,700.563 192.24,0 0,-700.563 z m 509.04,700.563 -462.96,0 0,-157.68 135.36,0 0,-543.606 192.24,0 0,543.606 135.36,0 0,157.68"
         style="fill:#231f20;fill-opacity:1;fill-rule:evenodd;stroke:none"
         id="path3367"
         inkscape:connector-curvature="0" />
      <path
         d="m 709.688,201.875 0,0 0,0 0,0 z"
         style="fill:#231f20;fill-opacity:1;fill-rule:evenodd;stroke:none"
         id="path3369"
         inkscape:connector-curvature="0" />
      <path
         d="m 709.688,201.875 0,0 0,0 0,0 z"
         style="fill:#231f20;fill-opacity:1;fill-rule:evenodd;stroke:none"
         id="path3371"
         inkscape:connector-curvature="0" />
      <path
         d="M 161.773,646.113 C 125.051,601.473 93.3672,552.516 68.8906,499.957 L 709.688,201.875 161.773,646.113 l 0,0"
         style="fill:#00a990;fill-opacity:1;fill-rule:evenodd;stroke:none"
         id="path3373"
         inkscape:connector-curvature="0" />
      <path
         d="M 709.688,201.875 410.891,837.637 C 357.605,813.152 308.652,782.914 264.016,746.914 l 445.672,-545.039 0,0"
         style="fill:#00a990;fill-opacity:1;fill-rule:evenodd;stroke:none"
         id="path3375"
         inkscape:connector-curvature="0" />
      <path
         d="m 709.688,201.875 0.722,700.563 c -2.156,0 -3.597,0 -5.762,0 -56.875,0 -112.32,-7.204 -165.593,-20.165 l 170.633,-680.398 0,0"
         style="fill:#231f20;fill-opacity:1;fill-rule:evenodd;stroke:none"
         id="path3377"
         inkscape:connector-curvature="0" />
      <path
         d="m 709.688,201.875 0,0"
         style="fill:#231f20;fill-opacity:1;fill-rule:evenodd;stroke:none"
         id="path3379"
         inkscape:connector-curvature="0" />
      <path
         d="m 709.688,201.875 0,0"
         style="fill:#231f20;fill-opacity:1;fill-rule:evenodd;stroke:none"
         id="path3381"
         inkscape:connector-curvature="0" />
      <path
         d="M 22.8125,373.23 C 8.40625,318.516 1.21094,260.918 0.488281,201.875 l 709.199719,0 -686.8755,171.355 0,0"
         style="fill:#00a990;fill-opacity:1;fill-rule:evenodd;stroke:none"
         id="path3383"
         inkscape:connector-curvature="0" />
      <path
         d="m 0,27.7031 12.4805,0 0,42.6875 38.8125,-42.6875 18.2187,0 -44.1797,45.9297 40.9375,41.1912 -16.6015,0 -37.1875,-38.3201 0,38.3201 -12.4805,0 0,-87.1209"
         style="fill:#231f20;fill-opacity:1;fill-rule:nonzero;stroke:none"
         id="path3385"
         inkscape:connector-curvature="0" />
      <path
         d="m 118.574,52.4219 c 0,-3.1836 -0.664,-6.0547 -2.015,-8.5547 -1.329,-2.5195 -3.329,-4.4922 -5.95,-5.9453 -2.621,-1.4571 -5.882,-2.2071 -9.754,-2.2305 -1.3511,0 -2.7261,0.2344 -4.1167,0.6641 -1.3789,0.4609 -2.6641,1.1054 -3.8281,1.9843 -1.168,0.8868 -2.1016,1.9727 -2.8125,3.2422 -0.7032,1.2891 -1.0782,2.7813 -1.1055,4.4727 0.0469,2.2266 0.6055,4.1016 1.6914,5.5937 1.0781,1.4766 2.5195,2.668 4.2617,3.5547 1.75,0.8985 3.6211,1.5625 5.6177,2.0235 1.996,0.4297 3.929,0.7226 5.785,0.8672 1.843,0.1484 3.425,0.207 4.742,0.1875 1.246,0 2.496,-0.0391 3.746,-0.1172 1.25,-0.0703 2.492,-0.1094 3.738,-0.1289 l 0,-5.6133 z M 84.3789,76.875 c 1.6016,1.3398 3.4141,2.5 5.4258,3.457 2.0234,0.9766 4.1445,1.7266 6.3672,2.2461 2.2265,0.5274 4.4531,0.7891 6.6801,0.7891 3.89,0 6.988,-0.625 9.296,-1.8438 2.309,-1.25 3.957,-3.1054 4.954,-5.5586 1.019,-2.4804 1.492,-5.5351 1.472,-9.1992 -1.519,0.0899 -2.929,0.1485 -4.258,0.168 -1.32,0.0391 -2.644,0.0703 -3.957,0.0859 -1.312,0 -2.742,0 -4.265,0 -2.449,0 -5.035,-0.2031 -7.7151,-0.6406 -2.707,-0.4414 -5.3476,-1.1445 -7.9258,-2.1406 -2.582,-0.9844 -4.9062,-2.2735 -7.0117,-3.8985 -2.0976,-1.621 -3.7656,-3.6132 -5.0156,-5.9648 -1.2422,-2.3711 -1.8672,-5.1367 -1.9102,-8.3203 0.043,-4.6016 1.043,-8.3789 2.9961,-11.2969 1.9766,-2.9336 4.6992,-5.1015 8.1953,-6.4883 3.4961,-1.375 7.5313,-2.0586 12.1446,-2.0586 2.6874,0.0196 5.0974,0.3516 7.2224,0.9766 2.145,0.625 4.016,1.4336 5.637,2.4297 1.625,0.9961 2.992,2.0625 4.141,3.1641 1.121,1.125 2.035,2.1601 2.722,3.164 l 0.25,0 0,-8.2422 10.989,0 c -0.09,0.6055 -0.172,1.4375 -0.254,2.4532 -0.063,1.0429 -0.125,2.371 -0.168,4.0039 -0.059,1.6211 -0.082,3.6328 -0.082,6.0234 l 0,26.3398 c 0.023,5.7813 -0.836,10.625 -2.579,14.5313 -1.75,3.9141 -4.511,6.8555 -8.281,8.8281 -3.765,1.9727 -8.672,2.9688 -14.722,2.9688 -4.063,-0.0196 -7.8207,-0.5782 -11.3364,-1.6797 -3.4961,-1.0821 -6.6992,-2.5196 -9.6367,-4.3086 l 0.625,-9.9883 0,0"
         style="fill:#231f20;fill-opacity:1;fill-rule:nonzero;stroke:none"
         id="path3387"
         inkscape:connector-curvature="0" />
      <path
         d="m 149.418,27.7031 11.734,0 0,28.9571 c 0.02,5.3515 0.746,9.9609 2.161,13.8359 1.437,3.8672 3.433,6.8672 6.035,8.9375 2.578,2.1094 5.632,3.1641 9.148,3.1836 1.024,0.0195 2.078,-0.0586 3.203,-0.2266 1.121,-0.164 2.207,-0.457 3.289,-0.8984 l 0,10.4883 c -0.812,0.1679 -1.597,0.3164 -2.332,0.4609 -0.746,0.1172 -1.558,0.2266 -2.414,0.293 -0.847,0.0781 -1.847,0.1172 -2.992,0.1172 -2.27,-0.0196 -4.473,-0.5 -6.613,-1.4727 -2.121,-0.957 -4.059,-2.2891 -5.782,-3.9961 -1.75,-1.707 -3.144,-3.664 -4.203,-5.8906 l -0.254,0 0,9.8633 -10.98,0 0,-63.6524"
         style="fill:#231f20;fill-opacity:1;fill-rule:nonzero;stroke:none"
         id="path3389"
         inkscape:connector-curvature="0" />
      <path
         d="m 198.73,27.7031 11.731,0 0,93.6059 -11.731,0 0,-93.6059"
         style="fill:#231f20;fill-opacity:1;fill-rule:nonzero;stroke:none"
         id="path3391"
         inkscape:connector-curvature="0" />
      <path
         d="m 225.828,29.707 c 2.707,-1.3984 5.535,-2.3554 8.508,-2.832 2.949,-0.4805 5.945,-0.7031 8.965,-0.6641 2.871,0 5.613,0.3907 8.258,1.1797 2.64,0.793 5.011,2.0235 7.113,3.6446 2.082,1.6211 3.746,3.6796 4.973,6.1796 1.226,2.4922 1.851,5.4415 1.875,8.8399 -0.024,2.8906 -0.54,5.3398 -1.52,7.3633 -1.004,2.0117 -2.312,3.7187 -3.957,5.1367 -1.621,1.3945 -3.426,2.5781 -5.387,3.5937 -1.953,1.0039 -3.91,1.9336 -5.867,2.793 -1.953,0.8789 -3.762,1.7695 -5.383,2.7031 -1.644,0.9571 -2.957,2.0625 -3.953,3.3321 -0.976,1.2695 -1.5,2.8242 -1.519,4.6562 0.019,1.75 0.562,3.207 1.582,4.3477 1.019,1.1406 2.386,1.9922 4.078,2.5586 1.679,0.5664 3.554,0.8281 5.57,0.8281 0.707,0 1.625,-0.1055 2.731,-0.2617 1.101,-0.1953 2.265,-0.4492 3.496,-0.7539 1.246,-0.293 2.386,-0.6407 3.488,-1.043 1.082,-0.3711 1.957,-0.7617 2.644,-1.1797 l 0.997,10.2305 c -2.286,0.7031 -4.614,1.289 -6.969,1.7695 -2.367,0.4609 -4.906,0.7031 -7.629,0.7227 -3.164,0 -6.113,-0.3907 -8.82,-1.2032 -2.723,-0.789 -5.098,-2.0195 -7.137,-3.6211 -2.039,-1.621 -3.641,-3.664 -4.77,-6.1132 -1.14,-2.461 -1.722,-5.3516 -1.742,-8.6524 0.02,-2.539 0.543,-4.7265 1.539,-6.6015 0.977,-1.8477 2.289,-3.4454 3.93,-4.8243 1.644,-1.3476 3.433,-2.5586 5.391,-3.6132 1.953,-1.0469 3.914,-2.043 5.867,-2.961 1.957,-0.9258 3.761,-1.8828 5.383,-2.8711 1.648,-0.9648 2.957,-2.0703 3.957,-3.3008 0.976,-1.207 1.5,-2.6445 1.515,-4.2851 -0.015,-1.7109 -0.394,-3.1445 -1.121,-4.3281 -0.707,-1.1602 -1.664,-2.0977 -2.851,-2.8008 -1.18,-0.711 -2.469,-1.211 -3.868,-1.5235 -1.394,-0.3125 -2.789,-0.4609 -4.14,-0.4609 -1.16,0 -2.578,0.168 -4.27,0.5 -1.68,0.332 -3.426,0.8281 -5.238,1.5039 -1.828,0.6641 -3.516,1.4922 -5.098,2.4883 l -0.621,-10.4766 0,0"
         style="fill:#231f20;fill-opacity:1;fill-rule:nonzero;stroke:none"
         id="path3393"
         inkscape:connector-curvature="0" />
      <path
         d="m 279.008,27.7031 11.734,0 0,28.9571 c 0.02,5.3515 0.746,9.9609 2.164,13.8359 1.434,3.8672 3.434,6.8672 6.032,8.9375 2.578,2.1094 5.636,3.1641 9.152,3.1836 1.019,0.0195 2.082,-0.0586 3.203,-0.2266 1.117,-0.164 2.203,-0.457 3.285,-0.8984 l 0,10.4883 c -0.808,0.1679 -1.598,0.3164 -2.328,0.4609 -0.746,0.1172 -1.562,0.2266 -2.414,0.293 -0.852,0.0781 -1.852,0.1172 -2.996,0.1172 -2.266,-0.0196 -4.473,-0.5 -6.613,-1.4727 -2.122,-0.957 -4.055,-2.2891 -5.786,-3.9961 -1.746,-1.707 -3.136,-3.664 -4.199,-5.8906 l -0.254,0 0,9.8633 -10.98,0 0,-63.6524"
         style="fill:#231f20;fill-opacity:1;fill-rule:nonzero;stroke:none"
         id="path3395"
         inkscape:connector-curvature="0" />
      <path
         d="m 383.109,91.3555 -11.726,0 0,-29.4532 c 0,-3.8867 -0.375,-7.4296 -1.149,-10.6328 -0.765,-3.2031 -1.933,-5.9492 -3.515,-8.2734 -1.582,-2.332 -3.598,-4.1172 -6.031,-5.3906 -2.434,-1.2657 -5.329,-1.8907 -8.653,-1.9141 -3.39,0.207 -6.074,1.1641 -8.051,2.8711 -1.972,1.7109 -3.371,4.1992 -4.199,7.4922 -0.855,3.2812 -1.25,7.4023 -1.23,12.3516 l 0,32.9492 -11.731,0 0,-37.8086 c 0,-5.7266 0.832,-10.6172 2.516,-14.6914 1.683,-4.0821 4.308,-7.1953 7.824,-9.3633 3.516,-2.1563 8.031,-3.2617 13.5,-3.2813 2.973,0.0196 5.844,0.4766 8.57,1.3868 2.719,0.9375 5.157,2.2734 7.282,3.9921 2.136,1.7305 3.8,3.8086 4.988,6.2227 l 0.254,0 0,-10.1094 11.351,0 0,63.6524"
         style="fill:#231f20;fill-opacity:1;fill-rule:nonzero;stroke:none"
         id="path3397"
         inkscape:connector-curvature="0" />
      <path
         d="m 402.344,27.7031 11.738,0 0,29.4532 c 0,3.8984 0.371,7.4335 1.145,10.6367 0.769,3.2031 1.929,5.9453 3.511,8.2695 1.578,2.3359 3.598,4.1211 6.032,5.3906 2.437,1.2696 5.328,1.8946 8.66,1.9141 3.386,-0.2031 6.066,-1.1406 8.047,-2.8711 1.976,-1.6953 3.367,-4.1953 4.203,-7.4883 0.851,-3.2812 1.246,-7.4023 1.222,-12.3555 l 0,-32.9492 11.731,0 0,37.8242 c 0.023,5.711 -0.828,10.6055 -2.516,14.6875 -1.683,4.0704 -4.304,7.1875 -7.82,9.3555 -3.516,2.168 -8.008,3.2617 -13.496,3.2813 -4.481,-0.0196 -8.449,-0.9375 -11.965,-2.7618 -3.516,-1.8281 -6.344,-4.457 -8.512,-7.8437 l -0.242,0 0,39.0629 -11.738,0 0,-93.6059"
         style="fill:#231f20;fill-opacity:1;fill-rule:nonzero;stroke:none"
         id="path3399"
         inkscape:connector-curvature="0" />
      <path
         d="m 486.109,65.6445 c 0.207,2.0899 0.688,4.1602 1.434,6.2383 0.727,2.082 1.77,3.9766 3.141,5.7227 1.359,1.7304 3.054,3.1093 5.136,4.1601 2.063,1.0469 4.516,1.5821 7.387,1.6016 2.535,-0.0195 4.781,-0.4766 6.738,-1.3945 1.981,-0.918 3.618,-2.1758 4.977,-3.8086 1.348,-1.6211 2.387,-3.5157 3.074,-5.625 0.703,-2.1485 1.063,-4.4336 1.063,-6.8946 l -32.95,0 0,0 z m 40.563,-23.5859 c -0.731,-0.6055 -1.789,-1.2656 -3.188,-2 -1.39,-0.7227 -2.964,-1.4063 -4.785,-2.082 -1.804,-0.6641 -3.699,-1.1993 -5.695,-1.6211 -1.996,-0.4297 -3.973,-0.6407 -5.93,-0.6641 -2.804,0.0234 -5.449,0.5195 -7.965,1.543 -2.5,1.0195 -4.746,2.4726 -6.675,4.3476 -1.954,1.875 -3.496,4.1016 -4.621,6.6993 -1.102,2.5976 -1.68,5.4687 -1.704,8.6328 l 45.43,0 c 0.02,5.1367 -0.461,9.9023 -1.394,14.2461 -0.957,4.3671 -2.516,8.1562 -4.68,11.3984 -2.184,3.2422 -5.055,5.7617 -8.672,7.5469 -3.602,1.8086 -8.055,2.7265 -13.336,2.7461 -4.512,-0.0196 -8.59,-0.8086 -12.25,-2.3633 -3.644,-1.582 -6.781,-3.7891 -9.406,-6.6602 -2.617,-2.8711 -4.637,-6.2617 -6.031,-10.1953 -1.415,-3.9062 -2.118,-8.2344 -2.141,-12.9805 0,-5.1914 0.644,-9.8984 1.976,-14.121 1.309,-4.2266 3.333,-7.8399 6.036,-10.8555 2.699,-3.0391 6.113,-5.375 10.25,-6.9961 4.164,-1.6367 9.047,-2.4492 14.687,-2.4688 3.473,0.0196 6.426,0.2539 8.883,0.7032 2.43,0.457 4.555,0.9961 6.348,1.6211 1.761,0.625 3.386,1.2304 4.863,1.7968 l 0,11.7266"
         style="fill:#231f20;fill-opacity:1;fill-rule:nonzero;stroke:none"
         id="path3401"
         inkscape:connector-curvature="0" />
      <path
         d="m 546.527,27.7031 11.735,0 0,28.9571 c 0.019,5.3515 0.746,9.9609 2.164,13.8359 1.433,3.8672 3.429,6.8672 6.027,8.9375 2.578,2.1094 5.641,3.1641 9.156,3.1836 1.024,0.0195 2.082,-0.0586 3.204,-0.2266 1.125,-0.164 2.203,-0.457 3.289,-0.8984 l 0,10.4883 c -0.813,0.1679 -1.606,0.3164 -2.332,0.4609 -0.747,0.1172 -1.563,0.2266 -2.415,0.293 -0.851,0.0781 -1.851,0.1172 -2.996,0.1172 -2.265,-0.0196 -4.472,-0.5 -6.617,-1.4727 -2.117,-0.957 -4.051,-2.2891 -5.777,-3.9961 -1.75,-1.707 -3.141,-3.664 -4.199,-5.8906 l -0.254,0 0,9.8633 -10.985,0 0,-63.6524"
         style="fill:#231f20;fill-opacity:1;fill-rule:nonzero;stroke:none"
         id="path3403"
         inkscape:connector-curvature="0" />
      <path
         d="m 630.168,27.7031 12.473,0 0,87.1209 -12.473,0 0,-87.1209"
         style="fill:#231f20;fill-opacity:1;fill-rule:nonzero;stroke:none"
         id="path3405"
         inkscape:connector-curvature="0" />
      <path
         d="m 662.996,27.7031 11.738,0 0,29.4532 c 0,3.8984 0.371,7.4335 1.145,10.6367 0.769,3.2031 1.934,5.9453 3.516,8.2695 1.578,2.3359 3.593,4.1211 6.031,5.3906 2.433,1.2696 5.328,1.8946 8.656,1.9141 3.391,-0.2031 6.07,-1.1406 8.047,-2.8711 1.976,-1.6953 3.367,-4.1953 4.203,-7.4883 0.856,-3.2812 1.246,-7.4023 1.227,-12.3555 l 0,-32.9492 11.726,0 0,37.8242 c 0.028,5.711 -0.828,10.6055 -2.512,14.6875 -1.683,4.0704 -4.308,7.1875 -7.824,9.3555 -3.515,2.168 -8.008,3.2617 -13.5,3.2813 -2.969,0 -5.84,-0.4805 -8.562,-1.3868 -2.731,-0.9375 -5.164,-2.246 -7.285,-3.996 -2.141,-1.7266 -3.809,-3.7891 -4.993,-6.2188 l -0.25,0 0,10.1055 -11.363,0 0,-63.6524"
         style="fill:#231f20;fill-opacity:1;fill-rule:nonzero;stroke:none"
         id="path3407"
         inkscape:connector-curvature="0" />
      <path
         d="m 733.16,29.707 c 2.703,-1.3984 5.531,-2.3554 8.504,-2.832 2.953,-0.4805 5.953,-0.7031 8.973,-0.6641 2.871,0 5.613,0.3907 8.25,1.1797 2.644,0.793 5.019,2.0235 7.121,3.6446 2.078,1.6211 3.738,3.6796 4.969,6.1796 1.226,2.4922 1.851,5.4415 1.871,8.8399 -0.02,2.8906 -0.543,5.3398 -1.52,7.3633 -0.996,2.0117 -2.308,3.7187 -3.957,5.1367 -1.617,1.3945 -3.426,2.5781 -5.379,3.5937 -1.957,1.0039 -3.918,1.9336 -5.871,2.793 -1.949,0.8789 -3.762,1.7695 -5.383,2.7031 -1.644,0.9571 -2.957,2.0625 -3.953,3.3321 -0.98,1.2695 -1.504,2.8242 -1.519,4.6562 0.015,1.75 0.562,3.207 1.582,4.3477 1.019,1.1406 2.39,1.9922 4.074,2.5586 1.683,0.5664 3.558,0.8281 5.57,0.8281 0.715,0 1.629,-0.1055 2.731,-0.2617 1.105,-0.1953 2.269,-0.4492 3.496,-0.7539 1.246,-0.293 2.386,-0.6407 3.492,-1.043 1.086,-0.3711 1.953,-0.7617 2.641,-1.1797 l 1.003,10.2305 c -2.292,0.7031 -4.621,1.289 -6.972,1.7695 -2.371,0.4609 -4.903,0.7031 -7.633,0.7227 -3.16,0 -6.113,-0.3907 -8.82,-1.2032 -2.723,-0.789 -5.098,-2.0195 -7.133,-3.6211 -2.039,-1.621 -3.645,-3.664 -4.766,-6.1132 -1.14,-2.461 -1.726,-5.3516 -1.75,-8.6524 0.024,-2.539 0.543,-4.7265 1.543,-6.6015 0.981,-1.8477 2.285,-3.4454 3.934,-4.8243 1.644,-1.3476 3.43,-2.5586 5.387,-3.6132 1.953,-1.0469 3.91,-2.043 5.867,-2.961 1.953,-0.9258 3.758,-1.8828 5.383,-2.8711 1.644,-0.9648 2.957,-2.0703 3.953,-3.3008 0.976,-1.207 1.5,-2.6445 1.519,-4.2851 -0.019,-1.7109 -0.394,-3.1445 -1.125,-4.3281 -0.707,-1.1602 -1.664,-2.0977 -2.847,-2.8008 -1.184,-0.711 -2.473,-1.211 -3.872,-1.5235 -1.39,-0.3125 -2.789,-0.4609 -4.132,-0.4609 -1.168,0 -2.586,0.168 -4.27,0.5 -1.683,0.332 -3.433,0.8281 -5.242,1.5039 -1.828,0.6641 -3.52,1.4922 -5.102,2.4883 l -0.617,-10.4766 0,0"
         style="fill:#231f20;fill-opacity:1;fill-rule:nonzero;stroke:none"
         id="path3409"
         inkscape:connector-curvature="0" />
      <path
         d="m 820.16,91.3555 -16.847,0 0,18.4685 -11.731,-3.738 0,-14.7305 -14.355,0 0,-9.4805 14.355,0 0,-37.1992 c 0.02,-4.2383 0.813,-7.711 2.395,-10.4375 1.582,-2.7266 3.828,-4.7656 6.738,-6.0742 2.933,-1.3086 6.402,-1.9532 10.461,-1.9532 1.894,0.0196 3.703,0.2227 5.41,0.6055 1.727,0.3516 3.25,0.7422 4.574,1.1445 l 0,9.9766 c -0.871,-0.5742 -1.976,-1.1016 -3.285,-1.543 -1.332,-0.4492 -2.895,-0.6797 -4.699,-0.7031 -1.813,0 -3.457,0.4414 -4.953,1.3125 -1.477,0.8789 -2.66,2.1445 -3.535,3.8242 -0.899,1.6914 -1.352,3.7696 -1.375,6.2227 l 0,34.8242 16.847,0 0,9.4805"
         style="fill:#231f20;fill-opacity:1;fill-rule:nonzero;stroke:none"
         id="path3411"
         inkscape:connector-curvature="0" />
      <path
         d="m 848.137,118.816 -13.235,0 0,-13.23 13.235,0 0,13.23 z m -12.485,-91.1129 11.731,0 0,63.6524 -11.731,0 0,-63.6524"
         style="fill:#231f20;fill-opacity:1;fill-rule:nonzero;stroke:none"
         id="path3413"
         inkscape:connector-curvature="0" />
      <path
         d="m 901.938,91.3555 -16.848,0 0,18.4685 -11.731,-3.738 0,-14.7305 -14.355,0 0,-9.4805 14.355,0 0,-37.1992 c 0.02,-4.2383 0.813,-7.711 2.395,-10.4375 1.582,-2.7266 3.824,-4.7656 6.734,-6.0742 2.938,-1.3086 6.407,-1.9532 10.465,-1.9532 1.895,0.0196 3.703,0.2227 5.406,0.6055 1.731,0.3516 3.246,0.7422 4.579,1.1445 l 0,9.9766 c -0.875,-0.5742 -1.977,-1.1016 -3.286,-1.543 -1.332,-0.4492 -2.894,-0.6797 -4.703,-0.7031 -1.808,0 -3.457,0.4414 -4.949,1.3125 -1.477,0.8789 -2.66,2.1445 -3.535,3.8242 -0.899,1.6914 -1.352,3.7696 -1.375,6.2227 l 0,34.8242 16.848,0 0,9.4805"
         style="fill:#231f20;fill-opacity:1;fill-rule:nonzero;stroke:none"
         id="path3415"
         inkscape:connector-curvature="0" />
      <path
         d="m 972.219,91.3555 -11.731,0 0,-29.4532 c 0,-3.8867 -0.371,-7.4296 -1.14,-10.6328 -0.774,-3.2031 -1.938,-5.9492 -3.52,-8.2734 -1.582,-2.332 -3.601,-4.1172 -6.031,-5.3906 -2.434,-1.2657 -5.324,-1.8907 -8.652,-1.9141 -3.391,0.207 -6.079,1.1641 -8.055,2.8711 -1.977,1.7109 -3.363,4.1992 -4.199,7.4922 -0.856,3.2812 -1.246,7.4023 -1.223,12.3516 l 0,32.9492 -11.734,0 0,-37.8086 c 0,-5.7266 0.836,-10.6172 2.511,-14.6914 1.692,-4.0821 4.309,-7.1953 7.825,-9.3633 3.515,-2.1563 8.027,-3.2617 13.5,-3.2813 2.972,0.0196 5.843,0.4766 8.57,1.3868 2.723,0.9375 5.156,2.2734 7.285,3.9921 2.141,1.7305 3.801,3.8086 4.988,6.2227 l 0.25,0 0,-10.1094 11.356,0 0,63.6524"
         style="fill:#231f20;fill-opacity:1;fill-rule:nonzero;stroke:none"
         id="path3417"
         inkscape:connector-curvature="0" />
      <path
         d="m 1025.27,91.3555 -16.84,0 0,18.4685 -11.731,-3.738 0,-14.7305 -14.355,0 0,-9.4805 14.355,0 0,-37.1992 c 0.02,-4.2383 0.813,-7.711 2.395,-10.4375 1.576,-2.7266 3.826,-4.7656 6.736,-6.0742 2.93,-1.3086 6.41,-1.9532 10.46,-1.9532 1.89,0.0196 3.7,0.2227 5.41,0.6055 1.73,0.3516 3.24,0.7422 4.57,1.1445 l 0,9.9766 c -0.87,-0.5742 -1.97,-1.1016 -3.28,-1.543 -1.33,-0.4492 -2.89,-0.6797 -4.7,-0.7031 -1.81,0 -3.46,0.4414 -4.95,1.3125 -1.48,0.8789 -2.67,2.1445 -3.54,3.8242 -0.89,1.6914 -1.35,3.7696 -1.37,6.2227 l 0,34.8242 16.84,0 0,9.4805"
         style="fill:#231f20;fill-opacity:1;fill-rule:nonzero;stroke:none"
         id="path3419"
         inkscape:connector-curvature="0" />
      <path
         d="m 1081.58,27.7031 11.73,0 0,54.1719 16.85,0 0,9.4805 -16.85,0 0,6.8672 c -0.02,2.1683 0.11,4.1603 0.35,5.9963 0.26,1.828 0.77,3.426 1.55,4.785 0.77,1.367 1.91,2.422 3.42,3.172 1.53,0.754 3.52,1.144 6.04,1.144 1.01,0 2.04,-0.058 3.04,-0.187 1.01,-0.125 1.87,-0.313 2.57,-0.555 l 0.5,9.481 c -1.18,0.187 -2.41,0.371 -3.7,0.519 -1.29,0.145 -2.67,0.235 -4.16,0.235 -4.31,-0.02 -7.86,-0.625 -10.64,-1.817 -2.8,-1.199 -4.98,-2.93 -6.54,-5.176 -1.56,-2.246 -2.64,-4.933 -3.26,-8.078 -0.63,-3.133 -0.92,-6.629 -0.9,-10.5154 l 0,-5.8711 -14.98,0 0,-9.4805 14.98,0 0,-54.1719"
         style="fill:#231f20;fill-opacity:1;fill-rule:nonzero;stroke:none"
         id="path3421"
         inkscape:connector-curvature="0" />
      <path
         d="m 1178.07,91.3555 -11.73,0 0,-29.4532 c 0,-3.8867 -0.37,-7.4296 -1.14,-10.6328 -0.78,-3.2031 -1.94,-5.9492 -3.52,-8.2734 -1.58,-2.332 -3.6,-4.1172 -6.04,-5.3906 -2.43,-1.2657 -5.32,-1.8907 -8.65,-1.9141 -3.39,0.207 -6.07,1.1641 -8.04,2.8711 -1.99,1.7109 -3.37,4.1992 -4.21,7.4922 -0.85,3.2812 -1.24,7.4023 -1.22,12.3516 l 0,32.9492 -11.74,0 0,-37.8086 c 0,-5.7266 0.84,-10.6172 2.52,-14.6914 1.69,-4.0821 4.3,-7.1953 7.82,-9.3633 3.51,-2.1563 8.03,-3.2617 13.51,-3.2813 2.96,0.0196 5.83,0.4766 8.56,1.3868 2.72,0.9375 5.16,2.2734 7.28,3.9921 2.14,1.7305 3.8,3.8086 4.99,6.2227 l 0.25,0 0,-10.1094 11.36,0 0,63.6524 z m -23.71,9.7385 11.73,0 0,12.48 -11.73,0 0,-12.48 z m -20.47,0 11.74,0 0,12.48 -11.74,0 0,-12.48"
         style="fill:#231f20;fill-opacity:1;fill-rule:nonzero;stroke:none"
         id="path3423"
         inkscape:connector-curvature="0" />
      <path
         d="m 1197.3,27.7031 11.73,0 0,28.9571 c 0.02,5.3515 0.76,9.9609 2.17,13.8359 1.44,3.8672 3.43,6.8672 6.03,8.9375 2.58,2.1094 5.64,3.1641 9.16,3.1836 1.01,0.0195 2.08,-0.0586 3.2,-0.2266 1.12,-0.164 2.21,-0.457 3.28,-0.8984 l 0,10.4883 c -0.81,0.1679 -1.6,0.3164 -2.32,0.4609 -0.76,0.1172 -1.57,0.2266 -2.42,0.293 -0.84,0.0781 -1.85,0.1172 -2.99,0.1172 -2.27,-0.0196 -4.48,-0.5 -6.62,-1.4727 -2.11,-0.957 -4.06,-2.2891 -5.79,-3.9961 -1.73,-1.707 -3.13,-3.664 -4.19,-5.8906 l -0.25,0 0,9.8633 -10.99,0 0,-63.6524"
         style="fill:#231f20;fill-opacity:1;fill-rule:nonzero;stroke:none"
         id="path3425"
         inkscape:connector-curvature="0" />
      <path
         d="m 1298.29,27.7031 12.48,0 0,76.1369 27.08,0 0,10.984 -66.65,0 0,-10.984 27.09,0 0,-76.1369"
         style="fill:#231f20;fill-opacity:1;fill-rule:nonzero;stroke:none"
         id="path3427"
         inkscape:connector-curvature="0" />
      <path
         d="m 1347.47,65.6445 c 0.22,2.0899 0.69,4.1602 1.44,6.2383 0.73,2.082 1.76,3.9766 3.14,5.7227 1.36,1.7304 3.06,3.1093 5.14,4.1601 2.06,1.0469 4.51,1.5821 7.38,1.6016 2.54,-0.0195 4.79,-0.4766 6.74,-1.3945 1.98,-0.918 3.62,-2.1758 4.98,-3.8086 1.35,-1.6211 2.38,-3.5157 3.08,-5.625 0.7,-2.1485 1.06,-4.4336 1.06,-6.8946 l -32.96,0 0,0 z m 40.57,-23.5859 c -0.74,-0.6055 -1.79,-1.2656 -3.19,-2 -1.39,-0.7227 -2.97,-1.4063 -4.78,-2.082 -1.81,-0.6641 -3.7,-1.1993 -5.69,-1.6211 -2.01,-0.4297 -3.98,-0.6407 -5.94,-0.6641 -2.81,0.0234 -5.44,0.5195 -7.96,1.543 -2.5,1.0195 -4.75,2.4726 -6.68,4.3476 -1.95,1.875 -3.5,4.1016 -4.62,6.6993 -1.1,2.5976 -1.68,5.4687 -1.71,8.6328 l 45.44,0 c 0.02,5.1367 -0.47,9.9023 -1.4,14.2461 -0.95,4.3671 -2.52,8.1562 -4.67,11.3984 -2.19,3.2422 -5.06,5.7617 -8.69,7.5469 -3.59,1.8086 -8.04,2.7265 -13.33,2.7461 -4.51,-0.0196 -8.59,-0.8086 -12.25,-2.3633 -3.63,-1.582 -6.78,-3.7891 -9.41,-6.6602 -2.61,-2.8711 -4.62,-6.2617 -6.02,-10.1953 -1.42,-3.9062 -2.12,-8.2344 -2.15,-12.9805 0,-5.1914 0.65,-9.8984 1.98,-14.121 1.31,-4.2266 3.33,-7.8399 6.04,-10.8555 2.69,-3.0391 6.11,-5.375 10.25,-6.9961 4.16,-1.6367 9.04,-2.4492 14.69,-2.4688 3.47,0.0196 6.43,0.2539 8.88,0.7032 2.43,0.457 4.55,0.9961 6.34,1.6211 1.77,0.625 3.39,1.2304 4.87,1.7968 l 0,11.7266"
         style="fill:#231f20;fill-opacity:1;fill-rule:nonzero;stroke:none"
         id="path3429"
         inkscape:connector-curvature="0" />
      <path
         d="m 1449.34,90.3594 c -1.16,0.4609 -2.52,0.8711 -4.14,1.2734 -1.61,0.3711 -3.3,0.6641 -5.04,0.8867 -1.77,0.2149 -3.45,0.3321 -5.05,0.3321 -4.9,-0.0196 -9.33,-0.8477 -13.29,-2.4688 -3.98,-1.6445 -7.39,-3.957 -10.24,-6.9258 -2.85,-2.9804 -5.06,-6.4922 -6.6,-10.5468 -1.53,-4.0625 -2.3,-8.5079 -2.32,-13.3789 0.02,-4.5704 0.81,-8.879 2.37,-12.8907 1.55,-4.0234 3.76,-7.539 6.65,-10.5937 2.87,-3.0586 6.29,-5.4727 10.23,-7.1992 3.98,-1.7188 8.36,-2.5977 13.2,-2.6368 1.43,0 2.97,0.0586 4.62,0.1836 1.66,0.1289 3.34,0.3711 5.06,0.7539 1.73,0.3907 3.39,0.9375 5.04,1.6797 l -0.87,10.4883 c -1.23,-0.793 -2.56,-1.4648 -4,-2.0039 -1.42,-0.5352 -2.89,-0.9336 -4.36,-1.1992 -1.48,-0.2735 -2.89,-0.4219 -4.25,-0.4219 -3.01,0.0234 -5.68,0.4805 -8.01,1.3984 -2.3,0.8868 -4.3,2.1368 -5.99,3.7188 -1.67,1.582 -3.03,3.3906 -4.1,5.4297 -1.06,2.043 -1.84,4.1836 -2.37,6.4453 -0.5,2.2773 -0.74,4.5625 -0.74,6.8477 0,3.0585 0.45,6.0156 1.34,8.8359 0.9,2.832 2.23,5.3711 3.98,7.6172 1.75,2.2695 3.87,4.0547 6.41,5.3633 2.53,1.3086 5.44,2 8.74,2.0195 1.89,0 3.9,-0.2031 6.07,-0.6641 2.18,-0.457 4.38,-1.1406 6.66,-2.0781 l 1,9.7344 0,0"
         style="fill:#231f20;fill-opacity:1;fill-rule:nonzero;stroke:none"
         id="path3431"
         inkscape:connector-curvature="0" />
      <path
         d="m 1462.58,27.7031 11.73,0 0,29.4532 c 0,3.8984 0.38,7.4335 1.14,10.6367 0.77,3.2031 1.93,5.9453 3.51,8.2695 1.59,2.3359 3.61,4.1211 6.04,5.3906 2.43,1.2696 5.32,1.8946 8.65,1.9141 3.39,-0.2031 6.08,-1.1406 8.05,-2.8711 1.98,-1.6953 3.37,-4.1953 4.21,-7.4883 0.85,-3.2812 1.24,-7.4023 1.22,-12.3555 l 0,-32.9492 11.74,0 0,37.8242 c 0.02,5.711 -0.84,10.6055 -2.52,14.6875 -1.69,4.0704 -4.31,7.1875 -7.82,9.3555 -3.52,2.168 -8.01,3.2617 -13.5,3.2813 -4.47,-0.0196 -8.45,-0.9375 -11.96,-2.7618 -3.52,-1.8281 -6.35,-4.457 -8.51,-7.8437 l -0.25,0 0,39.0629 -11.73,0 0,-93.6059"
         style="fill:#231f20;fill-opacity:1;fill-rule:nonzero;stroke:none"
         id="path3433"
         inkscape:connector-curvature="0" />
      <path
         d="m 1538.1,27.7031 11.73,0 0,29.4532 c 0,3.8984 0.38,7.4335 1.15,10.6367 0.77,3.2031 1.93,5.9453 3.51,8.2695 1.58,2.3359 3.6,4.1211 6.04,5.3906 2.43,1.2696 5.32,1.8946 8.65,1.9141 3.39,-0.2031 6.07,-1.1406 8.05,-2.8711 1.97,-1.6953 3.37,-4.1953 4.2,-7.4883 0.86,-3.2812 1.25,-7.4023 1.23,-12.3555 l 0,-32.9492 11.72,0 0,37.8242 c 0.03,5.711 -0.83,10.6055 -2.5,14.6875 -1.69,4.0704 -4.32,7.1875 -7.84,9.3555 -3.5,2.168 -8,3.2617 -13.49,3.2813 -2.97,0 -5.84,-0.4805 -8.57,-1.3868 -2.72,-0.9375 -5.16,-2.246 -7.28,-3.996 -2.14,-1.7266 -3.81,-3.7891 -4.99,-6.2188 l -0.26,0 0,10.1055 -11.35,0 0,-63.6524"
         style="fill:#231f20;fill-opacity:1;fill-rule:nonzero;stroke:none"
         id="path3435"
         inkscape:connector-curvature="0" />
      <path
         d="m 1621.86,59.5313 c 0,3.0585 0.46,6.0156 1.35,8.8359 0.9,2.832 2.19,5.3711 3.92,7.6172 1.7,2.2695 3.8,4.0547 6.26,5.3633 2.47,1.3086 5.27,2 8.44,2.0195 3.12,-0.0195 5.9,-0.7109 8.37,-2.0195 2.45,-1.3086 4.53,-3.0938 6.23,-5.3633 1.7,-2.2461 3.01,-4.7852 3.89,-7.6172 0.89,-2.8203 1.35,-5.7774 1.35,-8.8359 0,-2.2852 -0.24,-4.5704 -0.74,-6.8477 -0.5,-2.2617 -1.25,-4.4023 -2.3,-6.4453 -1.01,-2.0391 -2.3,-3.8477 -3.88,-5.4297 -1.59,-1.582 -3.43,-2.832 -5.58,-3.7188 -2.14,-0.9179 -4.59,-1.375 -7.34,-1.3984 -2.77,0.0234 -5.24,0.4805 -7.41,1.3984 -2.15,0.8868 -4.03,2.1368 -5.61,3.7188 -1.58,1.582 -2.87,3.3906 -3.91,5.4297 -1.02,2.043 -1.79,4.1836 -2.29,6.4453 -0.5,2.2773 -0.75,4.5625 -0.75,6.8477 l 0,0 z m -12.48,0 c 0.02,-4.5704 0.82,-8.879 2.37,-12.8907 1.56,-4.0234 3.77,-7.539 6.66,-10.5937 2.87,-3.0586 6.28,-5.4727 10.23,-7.1992 3.98,-1.7188 8.36,-2.5977 13.19,-2.6368 4.78,0.0391 9.18,0.918 13.1,2.6368 3.96,1.7265 7.37,4.1406 10.22,7.1992 2.87,3.0547 5.07,6.5703 6.64,10.5937 1.55,4.0117 2.34,8.3203 2.36,12.8907 -0.02,4.871 -0.78,9.3164 -2.32,13.3789 -1.55,4.0546 -3.72,7.5664 -6.58,10.5468 -2.85,2.9688 -6.26,5.2813 -10.21,6.9258 -3.96,1.6211 -8.36,2.4492 -13.21,2.4688 -4.89,-0.0196 -9.32,-0.8477 -13.29,-2.4688 -3.98,-1.6445 -7.39,-3.957 -10.24,-6.9258 -2.85,-2.9804 -5.05,-6.4922 -6.59,-10.5468 -1.54,-4.0625 -2.31,-8.5079 -2.33,-13.3789 l 0,0"
         style="fill:#231f20;fill-opacity:1;fill-rule:nonzero;stroke:none"
         id="path3437"
         inkscape:connector-curvature="0" />
      <path
         d="m 1690.64,27.7031 11.73,0 0,93.6059 -11.73,0 0,-93.6059"
         style="fill:#231f20;fill-opacity:1;fill-rule:nonzero;stroke:none"
         id="path3439"
         inkscape:connector-curvature="0" />
      <path
         d="m 1731.35,59.5313 c 0,3.0585 0.46,6.0156 1.35,8.8359 0.89,2.832 2.18,5.3711 3.91,7.6172 1.71,2.2695 3.81,4.0547 6.26,5.3633 2.47,1.3086 5.28,2 8.45,2.0195 3.11,-0.0195 5.91,-0.7109 8.36,-2.0195 2.45,-1.3086 4.54,-3.0938 6.24,-5.3633 1.71,-2.2461 3.02,-4.7852 3.88,-7.6172 0.9,-2.8203 1.35,-5.7774 1.35,-8.8359 0,-2.2852 -0.24,-4.5704 -0.74,-6.8477 -0.5,-2.2617 -1.25,-4.4023 -2.28,-6.4453 -1.02,-2.0391 -2.32,-3.8477 -3.9,-5.4297 -1.57,-1.582 -3.43,-2.832 -5.58,-3.7188 -2.14,-0.9179 -4.59,-1.375 -7.33,-1.3984 -2.78,0.0234 -5.25,0.4805 -7.41,1.3984 -2.16,0.8868 -4.04,2.1368 -5.62,3.7188 -1.58,1.582 -2.86,3.3906 -3.91,5.4297 -1.02,2.043 -1.78,4.1836 -2.29,6.4453 -0.5,2.2773 -0.74,4.5625 -0.74,6.8477 l 0,0 z m -12.48,0 c 0.02,-4.5704 0.81,-8.879 2.37,-12.8907 1.55,-4.0234 3.76,-7.539 6.65,-10.5937 2.87,-3.0586 6.28,-5.4727 10.24,-7.1992 3.97,-1.7188 8.35,-2.5977 13.19,-2.6368 4.78,0.0391 9.17,0.918 13.1,2.6368 3.95,1.7265 7.37,4.1406 10.21,7.1992 2.87,3.0547 5.08,6.5703 6.64,10.5937 1.56,4.0117 2.34,8.3203 2.37,12.8907 -0.03,4.871 -0.79,9.3164 -2.33,13.3789 -1.54,4.0546 -3.72,7.5664 -6.57,10.5468 -2.86,2.9688 -6.26,5.2813 -10.22,6.9258 -3.95,1.6211 -8.36,2.4492 -13.2,2.4688 -4.89,-0.0196 -9.33,-0.8477 -13.29,-2.4688 -3.98,-1.6445 -7.39,-3.957 -10.24,-6.9258 -2.85,-2.9804 -5.06,-6.4922 -6.6,-10.5468 -1.53,-4.0625 -2.3,-8.5079 -2.32,-13.3789 l 0,0"
         style="fill:#231f20;fill-opacity:1;fill-rule:nonzero;stroke:none"
         id="path3441"
         inkscape:connector-curvature="0" />
      <path
         d="m 1824.59,37.1875 c -2.74,0.0273 -5.22,0.625 -7.4,1.8359 -2.19,1.1797 -4.05,2.8321 -5.58,4.9102 -1.54,2.082 -2.7,4.4648 -3.51,7.1523 -0.81,2.7032 -1.23,5.5547 -1.23,8.5704 0,2.1796 0.23,4.4062 0.71,6.6328 0.46,2.2265 1.16,4.375 2.12,6.4062 0.93,2.0391 2.12,3.8477 3.53,5.4492 1.42,1.6016 3.08,2.8711 4.97,3.8086 1.9,0.918 4.03,1.3946 6.39,1.4141 3.12,-0.0195 5.85,-0.6836 8.17,-1.9727 2.34,-1.289 4.27,-3.0742 5.81,-5.3476 1.54,-2.2891 2.71,-4.8867 3.47,-7.8438 0.77,-2.9492 1.14,-6.0937 1.14,-9.4258 0,-2.9687 -0.45,-5.7812 -1.34,-8.3789 -0.9,-2.5976 -2.19,-4.8906 -3.83,-6.8632 -1.64,-1.9727 -3.6,-3.5157 -5.87,-4.6407 -2.29,-1.1211 -4.78,-1.6797 -7.55,-1.707 l 0,0 z m 30.33,54.168 -10.86,0 0,-9.4805 -0.25,0 c -1.14,2.3047 -2.64,4.2578 -4.49,5.9063 -1.85,1.621 -4.12,2.8945 -6.82,3.7421 -2.71,0.8789 -5.94,1.3282 -9.66,1.3282 -3.85,-0.0196 -7.27,-0.6641 -10.33,-1.9532 -3.06,-1.2695 -5.72,-3.0156 -7.99,-5.2461 -2.27,-2.2148 -4.14,-4.7851 -5.66,-7.6445 -1.5,-2.8711 -2.62,-5.9375 -3.35,-9.1797 -0.74,-3.2422 -1.13,-6.5039 -1.13,-9.7968 0,-4.1602 0.57,-8.0938 1.69,-11.836 1.13,-3.7383 2.84,-7.0898 5.1,-10.0078 2.25,-2.9102 5.08,-5.2148 8.49,-6.9062 3.41,-1.6797 7.38,-2.5274 11.94,-2.5782 2.72,0 5.41,0.3633 8.03,1.086 2.62,0.7226 5.08,1.8242 7.36,3.2812 2.29,1.4649 4.26,3.2891 5.95,5.4961 l 0.24,0 0,-6.2383 c -0.02,-4.5117 -0.78,-8.4062 -2.36,-11.6523 -1.56,-3.2695 -3.81,-5.7578 -6.74,-7.5274 -2.94,-1.75 -6.47,-2.64449 -10.61,-2.66793 -2.14,0 -4.11,0.10937 -5.95,0.31641 -1.86,0.20312 -3.64,0.56252 -5.39,1.02342 -1.77,0.4492 -3.58,1.0352 -5.45,1.7578 -1.89,0.7305 -3.95,1.6328 -6.17,2.6446 l -1.25,-10.85942 c 3.37,-1.14062 6.37,-2.05859 8.96,-2.68359 2.6,-0.64453 5.01,-1.074221 7.24,-1.328127 C 1817.67,0.0976563 1819.89,0 1822.1,0 c 7.59,0.0195313 13.81,1.21094 18.65,3.59375 4.86,2.37109 8.43,5.83203 10.73,10.35935 2.32,4.543 3.46,10.0313 3.44,16.4961 l 0,60.9063"
         style="fill:#231f20;fill-opacity:1;fill-rule:nonzero;stroke:none"
         id="path3443"
         inkscape:connector-curvature="0" />
      <path
         d="m 1888.13,118.816 -13.23,0 0,-13.23 13.23,0 0,13.23 z m -12.48,-91.1129 11.73,0 0,63.6524 -11.73,0 0,-63.6524"
         style="fill:#231f20;fill-opacity:1;fill-rule:nonzero;stroke:none"
         id="path3445"
         inkscape:connector-curvature="0" />
      <path
         d="m 1916.36,65.6445 c 0.2,2.0899 0.68,4.1602 1.43,6.2383 0.73,2.082 1.77,3.9766 3.15,5.7227 1.35,1.7304 3.04,3.1093 5.12,4.1601 2.07,1.0469 4.53,1.5821 7.4,1.6016 2.53,-0.0195 4.78,-0.4766 6.74,-1.3945 1.97,-0.918 3.61,-2.1758 4.97,-3.8086 1.34,-1.6211 2.39,-3.5157 3.07,-5.625 0.71,-2.1485 1.07,-4.4336 1.07,-6.8946 l -32.95,0 0,0 z m 40.55,-23.5859 c -0.72,-0.6055 -1.78,-1.2656 -3.18,-2 -1.39,-0.7227 -2.97,-1.4063 -4.78,-2.082 -1.81,-0.6641 -3.71,-1.1993 -5.7,-1.6211 -2,-0.4297 -3.97,-0.6407 -5.93,-0.6641 -2.81,0.0234 -5.44,0.5195 -7.96,1.543 -2.5,1.0195 -4.75,2.4726 -6.68,4.3476 -1.96,1.875 -3.5,4.1016 -4.61,6.6993 -1.12,2.5976 -1.69,5.4687 -1.71,8.6328 l 45.43,0 c 0.02,5.1367 -0.46,9.9023 -1.4,14.2461 -0.96,4.3671 -2.52,8.1562 -4.68,11.3984 -2.18,3.2422 -5.06,5.7617 -8.68,7.5469 -3.59,1.8086 -8.05,2.7265 -13.33,2.7461 -4.51,-0.0196 -8.58,-0.8086 -12.25,-2.3633 -3.64,-1.582 -6.78,-3.7891 -9.4,-6.6602 -2.62,-2.8711 -4.64,-6.2617 -6.03,-10.1953 -1.42,-3.9062 -2.12,-8.2344 -2.14,-12.9805 0,-5.1914 0.64,-9.8984 1.97,-14.121 1.31,-4.2266 3.33,-7.8399 6.03,-10.8555 2.71,-3.0391 6.12,-5.375 10.26,-6.9961 4.16,-1.6367 9.04,-2.4492 14.69,-2.4688 3.46,0.0196 6.42,0.2539 8.87,0.7032 2.44,0.457 4.55,0.9961 6.35,1.6211 1.77,0.625 3.39,1.2304 4.86,1.7968 l 0,11.7266"
         style="fill:#231f20;fill-opacity:1;fill-rule:nonzero;stroke:none"
         id="path3447"
         inkscape:connector-curvature="0" />
    </g>
    <text
       xml:space="preserve"
       style="font-style:normal;font-weight:normal;font-size:40px;line-height:0%;font-family:Sans;letter-spacing:0px;word-spacing:0px;fill:#000000;fill-opacity:1;stroke:none;stroke-width:1px;stroke-linecap:butt;stroke-linejoin:miter;stroke-opacity:1"
       x="14.257064"
       y="1075.0448"
       id="text4688"
       sodipodi:linespacing="0%"
       transform="matrix(0.96912411,-0.24657343,0.24657343,0.96912411,0,0)"><tspan
         sodipodi:role="line"
         x="14.257064"
         y="1075.0448"
         id="tspan4692"
         style="font-style:normal;font-variant:normal;font-weight:normal;font-stretch:normal;font-size:27.5px;font-family:'DIN 1451 Std';-inkscape-font-specification:'DIN 1451 Std';fill:#800000">ToDo: Logo? Name? URL?</tspan></text>
  </g>
</svg>
